<svg xmlns="http://www.w3.org/2000/svg" width="111.626" height="111.231" viewBox="0 0 111.626 111.231">
  <g id="Backend_development" transform="translate(-0.13 0.843)">
    <path id="Path_543" data-name="Path 543" d="M-19112.736-21018.559l-.4,5.727a16.228,16.228,0,0,1-3.52,6.793c-2.594,2.68-7.758,3.887-7.758,3.887l-6.164.816s5.752,6.168,5.752,12.289-5.752,12.2-5.752,12.2l6.164,1.848s5.324,1.09,7.758,3.8a19.356,19.356,0,0,1,3.52,7.07l.4,5.547s6.813-4.562,13.23-4.562,12.443,4.563,12.443,4.563l1.121-5.109s1.352-4.766,3.99-7.508,7.193-3.8,7.193-3.8l5.531-1.848s-5.008-5.535-5.008-11.656,5.008-12.828,5.008-12.828l-5.531-.816s-4.863-1.367-7.539-3.887-3.645-7.191-3.645-7.191l-1.121-5.328s-5.854,4.77-12.273,4.77S-19112.736-21018.559-19112.736-21018.559Z" transform="translate(19156.078 21043.059)" fill="none" stroke="#000" stroke-linejoin="round" stroke-width="3"/>
    <g id="grondlager" transform="translate(0.895 -0.271)">
      <path id="Path_560" data-name="Path 560" d="M43.664,87.949a15.452,15.452,0,0,0,1.322,11.1c3.047,5.625,10.85,11.171,10.85,11.171s7.555-5.412,10.642-11.171a17.09,17.09,0,0,0,1.664-11.33,40.868,40.868,0,0,1-11.9,2.309A42.034,42.034,0,0,1,43.664,87.949Z" transform="translate(-0.684 -1.407)" fill="none" stroke="#000" stroke-width="3"/>
      <path id="Path_563" data-name="Path 563" d="M.478,0A16.134,16.134,0,0,0,1.815,11.33C4.862,16.955,12.665,22.5,12.665,22.5S20.22,17.089,23.307,11.33A17.09,17.09,0,0,0,24.971,0a40.868,40.868,0,0,1-11.9,2.309A38.965,38.965,0,0,1,.478,0Z" transform="translate(86.493 67.589) rotate(-91)" fill="none" stroke="#000" stroke-width="3"/>
      <path id="Path_561" data-name="Path 561" d="M.478,0A16.134,16.134,0,0,0,1.815,11.33C4.862,16.955,12.665,22.5,12.665,22.5S20.22,17.089,23.307,11.33A16.065,16.065,0,0,0,24.93.305a46.612,46.612,0,0,1-11.859,2A38.965,38.965,0,0,1,.478,0Z" transform="translate(67.921 86.404) rotate(-45)" fill="none" stroke="#000" stroke-width="3"/>
      <path id="Path_562" data-name="Path 562" d="M.478,0A16.134,16.134,0,0,0,1.815,11.33C4.862,16.955,12.665,22.5,12.665,22.5S20.22,17.089,23.307,11.33A17.09,17.09,0,0,0,24.971,0a40.868,40.868,0,0,1-11.9,2.309A38.965,38.965,0,0,1,.478,0Z" transform="translate(85.809 41.573) rotate(-135)" fill="none" stroke="#000" stroke-width="3"/>
      <path id="Path_564" data-name="Path 564" d="M.471.266A15.423,15.423,0,0,0,1.815,11.33C4.862,16.955,12.665,22.5,12.665,22.5S20.22,17.089,23.307,11.33A17.09,17.09,0,0,0,24.971,0a40.868,40.868,0,0,1-11.9,2.309A42.9,42.9,0,0,1,.471.266Z" transform="translate(67.611 23.772) rotate(-180)" fill="none" stroke="#000" stroke-width="3"/>
      <path id="Path_565" data-name="Path 565" d="M.478,0A16.134,16.134,0,0,0,1.815,11.33C4.862,16.955,12.665,22.5,12.665,22.5S20.22,17.089,23.307,11.33A17.09,17.09,0,0,0,24.971,0a40.868,40.868,0,0,1-11.9,2.309A38.965,38.965,0,0,1,.478,0Z" transform="matrix(0.017, 1, -1, 0.017, 23.604, 42.499)" fill="none" stroke="#000" stroke-width="3"/>
      <path id="Path_566" data-name="Path 566" d="M.478,0A16.134,16.134,0,0,0,1.815,11.33C4.862,16.955,12.665,22.5,12.665,22.5S20.22,17.089,23.307,11.33A17.153,17.153,0,0,0,25.124.21a46.919,46.919,0,0,1-12.054,2.1A38.965,38.965,0,0,1,.478,0Z" transform="translate(42.176 23.685) rotate(135)" fill="none" stroke="#000" stroke-width="3"/>
      <path id="Path_567" data-name="Path 567" d="M.478,0A16.134,16.134,0,0,0,1.815,11.33C4.862,16.955,12.665,22.5,12.665,22.5S20.22,17.089,23.307,11.33A17.09,17.09,0,0,0,24.971,0a40.868,40.868,0,0,1-11.9,2.309A38.965,38.965,0,0,1,.478,0Z" transform="translate(24.287 68.515) rotate(45)" fill="none" stroke="#000" stroke-width="3"/>
    </g>
    <path id="Path_569" data-name="Path 569" d="M63.05,56.5a6.55,6.55,0,1,0,6.55,6.55,6.55,6.55,0,0,0-6.55-6.55Zm0,10.044a3.493,3.493,0,1,1,3.493-3.493A3.493,3.493,0,0,1,63.05,66.544Z" transform="translate(-7.5 -8.5)"/>
    <path id="Path_572" data-name="Path 572" d="M52.507,48.222A8.925,8.925,0,0,1,51.1,48.1a7.463,7.463,0,0,1-2.327-.809,1.112,1.112,0,0,0-1.494,1.494A7.922,7.922,0,0,1,36.457,59.451l-.009-.006A7.92,7.92,0,0,1,33.3,48.78a1.112,1.112,0,0,0-1.493-1.494,7.926,7.926,0,1,1,0-13.98A1.11,1.11,0,0,0,33.3,31.817a7.923,7.923,0,0,1,3.2-10.695l.012-.01a7.926,7.926,0,0,1,10.765,10.7,1.11,1.11,0,0,0,1.494,1.494,7.926,7.926,0,1,1,3.737,14.916Z" transform="translate(15.356 14.344)" fill="none" stroke="#000" stroke-width="3"/>
  </g>
</svg>
