<svg id="Backend_development" xmlns="http://www.w3.org/2000/svg" width="112" height="111.98" viewBox="0 0 112 111.98">
  <path id="Path_509" data-name="Path 509" d="M62.266,50.125A12.141,12.141,0,1,0,74.406,62.266,12.141,12.141,0,0,0,62.266,50.125Zm0,21.219a9.078,9.078,0,1,1,9.078-9.078,9.078,9.078,0,0,1-9.078,9.078Z" transform="translate(-6.266 -6.289)"/>
  <path id="Path_510" data-name="Path 510" d="M112,56a1.529,1.529,0,0,0-.513-1.144A88.379,88.379,0,0,0,98.45,45.265a12,12,0,0,0-2.918-10.612A12.883,12.883,0,0,0,77.354,16.472,12.01,12.01,0,0,0,66.737,13.55,88.357,88.357,0,0,0,57.144.516a1.58,1.58,0,0,0-2.287,0,88.356,88.356,0,0,0-9.593,13.037A12.01,12.01,0,0,0,34.65,16.472,12.883,12.883,0,0,0,16.468,34.653,12.01,12.01,0,0,0,13.547,45.27,88.356,88.356,0,0,0,.513,54.86a1.532,1.532,0,0,0,0,2.287A88.355,88.355,0,0,0,13.55,66.74a12.01,12.01,0,0,0,2.922,10.617A12.883,12.883,0,0,0,34.65,95.535a12.01,12.01,0,0,0,10.617,2.922,88.359,88.359,0,0,0,9.594,13.038,1.532,1.532,0,0,0,2.287,0,88.357,88.357,0,0,0,9.594-13.037,12.01,12.01,0,0,0,10.617-2.922A12.883,12.883,0,0,0,95.536,77.358a12,12,0,0,0,2.921-10.616,88.38,88.38,0,0,0,13.037-9.594A1.53,1.53,0,0,0,112,56ZM69.183,16.354a9,9,0,0,1,6.958,3.278,1.528,1.528,0,0,0,1.153.555,1.468,1.468,0,0,0,1.173-.514A9.822,9.822,0,1,1,92.331,33.537a1.532,1.532,0,0,0,.04,2.326,8.909,8.909,0,0,1,3.219,7.926,14.1,14.1,0,0,0-5.529-1.5,13.627,13.627,0,0,0-3.79.545,14.995,14.995,0,0,0-17.1-17.107,13.627,13.627,0,0,0,.545-3.79,14.1,14.1,0,0,0-1.5-5.529A8.935,8.935,0,0,1,69.183,16.354Zm3.8,50.662a11.037,11.037,0,0,1-5.194-1.3,1.545,1.545,0,0,0-2.076,2.076A11.012,11.012,0,0,1,50.674,82.624l-.012-.008a11.008,11.008,0,0,1-4.375-14.824,1.545,1.545,0,0,0-2.076-2.076,11.017,11.017,0,1,1,0-19.432,1.543,1.543,0,0,0,2.076-2.069,11.013,11.013,0,0,1,4.446-14.865l.017-.014A11.016,11.016,0,0,1,65.713,44.214a1.544,1.544,0,0,0,2.076,2.076,11.017,11.017,0,1,1,5.194,20.733Zm9.331-21.528a14.005,14.005,0,0,0-9.331-3.565c-.254,0-.507.009-.76.023l3.312-3.312a1.531,1.531,0,0,0-2.166-2.166l-3.312,3.312c.014-.253.023-.507.023-.76a14.005,14.005,0,0,0-3.565-9.331,11.931,11.931,0,0,1,15.8,15.8ZM56,24.941a14.041,14.041,0,0,0-3.37.424A57.855,57.855,0,0,1,56,19.93a56.358,56.358,0,0,1,3.351,5.43A14.04,14.04,0,0,0,56,24.941ZM45.485,29.689A14.005,14.005,0,0,0,41.92,39.02c0,.254.009.507.023.76l-3.312-3.312a1.531,1.531,0,0,0-2.166,2.166l3.312,3.312c-.253-.014-.507-.023-.76-.023a14,14,0,0,0-9.32,3.555c-.077-.165-.16-.328-.228-.5A11.931,11.931,0,0,1,45.482,29.689ZM25.36,59.352A56.357,56.357,0,0,1,19.926,56a57.856,57.856,0,0,1,5.435-3.368,13.591,13.591,0,0,0-.005,6.719Zm4.112,7.674c.068-.17.151-.332.227-.5a14,14,0,0,0,9.321,3.556c.254,0,.508-.009.76-.023l-3.315,3.312a1.531,1.531,0,0,0,2.166,2.166l3.312-3.312c-.014.253-.023.507-.023.76a14.005,14.005,0,0,0,3.565,9.331A11.931,11.931,0,0,1,29.469,67.028ZM56,87.066a14.04,14.04,0,0,0,3.349-.419A56.359,56.359,0,0,1,56,92.077a57.853,57.853,0,0,1-3.368-5.435A14.041,14.041,0,0,0,56,87.066Zm10.515-4.749a14.005,14.005,0,0,0,3.565-9.331c0-.254-.009-.507-.023-.76l3.312,3.312a1.531,1.531,0,0,0,2.166-2.166L72.223,70.06c.253.014.507.023.76.023a14.005,14.005,0,0,0,9.331-3.565,11.931,11.931,0,0,1-15.8,15.8ZM86.64,52.633A57.857,57.857,0,0,1,92.074,56a56.359,56.359,0,0,1-5.43,3.351,13.591,13.591,0,0,0-.005-6.719ZM56,3.874a80.144,80.144,0,0,1,8.617,12.17c.01.017.018.036.029.052a13.943,13.943,0,0,1,2,5.845,10.617,10.617,0,0,1-1.216,4.881,14.908,14.908,0,0,0-1.368.675c-.219-.153-.445-.3-.672-.438-.875-3.155-4.526-8.431-6.156-10.685A1.531,1.531,0,0,0,56,15.743h0a1.531,1.531,0,0,0-1.241.634c-1.654,2.285-5.337,7.6-6.175,10.7-.22.136-.437.274-.649.423a14.906,14.906,0,0,0-1.368-.676,10.617,10.617,0,0,1-1.216-4.881,13.934,13.934,0,0,1,2.013-5.852l.019-.035A80.3,80.3,0,0,1,56,3.874ZM16.351,42.82a9,9,0,0,1,3.278-6.958,1.532,1.532,0,0,0,.04-2.326A9.822,9.822,0,1,1,33.534,19.672a1.481,1.481,0,0,0,1.172.515,1.528,1.528,0,0,0,1.153-.555,8.909,8.909,0,0,1,7.926-3.219,14.1,14.1,0,0,0-1.5,5.529,13.627,13.627,0,0,0,.545,3.79,14.995,14.995,0,0,0-17.107,17.1,13.627,13.627,0,0,0-3.79-.545,14.1,14.1,0,0,0-5.529,1.5A8.935,8.935,0,0,1,16.351,42.82Zm-.31,4.566.052-.028a13.93,13.93,0,0,1,5.845-2.005,10.631,10.631,0,0,1,4.855,1.18,15.091,15.091,0,0,0,.7,1.4c-.149.212-.286.43-.423.649-3.1.84-8.414,4.52-10.7,6.175a1.531,1.531,0,0,0,0,2.482c2.254,1.629,7.529,5.278,10.685,6.156.141.228.284.453.438.672a15.092,15.092,0,0,0-.7,1.4,10.631,10.631,0,0,1-4.855,1.18,13.934,13.934,0,0,1-5.853-2.013l-.033-.017A80.361,80.361,0,0,1,3.871,56a80.188,80.188,0,0,1,12.17-8.617ZM42.816,95.652a9,9,0,0,1-6.958-3.278,1.528,1.528,0,0,0-1.153-.555,1.555,1.555,0,0,0-1.172.515A9.822,9.822,0,1,1,19.669,78.47a1.532,1.532,0,0,0-.04-2.326,8.909,8.909,0,0,1-3.219-7.926,14.1,14.1,0,0,0,5.529,1.5,13.627,13.627,0,0,0,3.79-.545,14.995,14.995,0,0,0,17.1,17.107,13.627,13.627,0,0,0-.545,3.79,14.1,14.1,0,0,0,1.5,5.529,8.936,8.936,0,0,1-.968.055ZM56,108.132a80.236,80.236,0,0,1-8.617-12.169c-.01-.018-.018-.036-.029-.053a13.943,13.943,0,0,1-2-5.845,10.617,10.617,0,0,1,1.216-4.881,14.9,14.9,0,0,0,1.368-.675c.212.149.43.286.649.423.84,3.1,4.52,8.414,6.175,10.7A1.531,1.531,0,0,0,56,96.264h0a1.531,1.531,0,0,0,1.241-.634c1.629-2.254,5.278-7.53,6.156-10.685.228-.141.453-.284.672-.437a14.906,14.906,0,0,0,1.368.675,10.617,10.617,0,0,1,1.216,4.881,13.934,13.934,0,0,1-2.012,5.853l-.018.032A80.265,80.265,0,0,1,56,108.132ZM95.649,69.186a9,9,0,0,1-3.278,6.958,1.532,1.532,0,0,0-.04,2.326A9.822,9.822,0,1,1,78.467,92.334a1.532,1.532,0,0,0-2.326.04,8.909,8.909,0,0,1-7.926,3.219,14.1,14.1,0,0,0,1.5-5.529,13.627,13.627,0,0,0-.545-3.79,14.995,14.995,0,0,0,17.107-17.1,13.627,13.627,0,0,0,3.79.545,14.1,14.1,0,0,0,5.529-1.5,8.924,8.924,0,0,1,.055.968Zm.31-4.566-.053.029a13.94,13.94,0,0,1-5.844,2,10.617,10.617,0,0,1-4.881-1.216A14.907,14.907,0,0,0,84.5,64.07c.153-.219.3-.445.438-.672,3.155-.875,8.431-4.526,10.685-6.156a1.531,1.531,0,0,0,0-2.481c-2.285-1.655-7.6-5.337-10.7-6.175-.137-.22-.274-.437-.423-.649a14.908,14.908,0,0,0,.675-1.368,10.617,10.617,0,0,1,4.881-1.216,13.927,13.927,0,0,1,5.851,2.012l.034.018A80.324,80.324,0,0,1,108.129,56a80.189,80.189,0,0,1-12.17,8.617Z" transform="translate(0 -0.026)"/>
  <path id="Path_543" data-name="Path 543" d="M-19102.863-21018.561l-.623,8.9s-1.437,6.395-5.467,10.553-12.053,6.031-12.053,6.031l-9.574,1.271s8.938,9.582,8.938,19.092-8.937,18.945-8.937,18.945l9.574,2.863s8.271,1.691,12.053,5.916,5.467,10.982,5.467,10.982l.623,8.615s10.582-7.086,20.551-7.086,19.326,7.086,19.326,7.086l1.742-7.934s2.1-7.408,6.2-11.664,11.172-5.916,11.172-5.916l8.592-2.863s-7.777-8.6-7.777-18.113,7.777-19.924,7.777-19.924l-8.592-1.271s-7.555-2.121-11.709-6.031-5.664-11.172-5.664-11.172l-1.742-8.279s-9.094,7.41-19.062,7.41S-19102.863-21018.561-19102.863-21018.561Z" transform="translate(19138.342 21027.758)" fill="none" stroke="#000" stroke-linejoin="round" stroke-width="3"/>
</svg>
