<svg xmlns="http://www.w3.org/2000/svg" width="114.234" height="112.878" viewBox="0 0 114.234 112.878">
  <g id="Backend-" transform="translate(1.294 1.724)">
    <path id="Path_516" data-name="Path 516" d="M.006.355A1.533,1.533,0,0,1,1.594-.917,1.485,1.485,0,0,1,3.072.388L2.8,8.164-.3,8.127Z" transform="matrix(0.999, -0.035, 0.035, 0.999, 54.49, 80.598)"/>
    <path id="Path_517" data-name="Path 517" d="M.31,7.808A1.532,1.532,0,0,0,1.9,9.081a1.485,1.485,0,0,0,1.479-1.3L3.1,0,0,.037Z" transform="matrix(0.999, 0.035, -0.035, 0.999, 54.471, 20.259)"/>
    <path id="Path_518" data-name="Path 518" d="M.006.355A1.533,1.533,0,0,1,1.594-.917,1.485,1.485,0,0,1,3.072.388L2.8,8.164-.3,8.127Z" transform="matrix(-0.035, -0.999, 0.999, -0.035, 81.928, 56.422)"/>
    <path id="Path_519" data-name="Path 519" d="M.31,7.808A1.532,1.532,0,0,0,1.9,9.081a1.485,1.485,0,0,0,1.479-1.3L3.1,0,0,.037Z" transform="matrix(0.035, -0.999, 0.999, 0.035, 21.176, 56.543)"/>
    <path id="Path_520" data-name="Path 520" d="M.006.355A1.533,1.533,0,0,1,1.594-.917,1.485,1.485,0,0,1,3.072.388L2.8,8.164-.3,8.127Z" transform="translate(75.111 38.268) rotate(-137)"/>
    <path id="Path_521" data-name="Path 521" d="M.31,7.808A1.532,1.532,0,0,0,1.9,9.081a1.485,1.485,0,0,0,1.479-1.3L3.1,0,0,.037Z" transform="translate(32.925 79.804) rotate(-133)"/>
    <path id="Path_522" data-name="Path 522" d="M.006.355A1.533,1.533,0,0,1,1.594-.917,1.485,1.485,0,0,1,3.072.388L2.8,8.164-.3,8.127Z" transform="translate(38.157 36.785) rotate(133)"/>
    <path id="Path_523" data-name="Path 523" d="M.31,7.808A1.532,1.532,0,0,0,1.9,9.081a1.485,1.485,0,0,0,1.479-1.3L3.1,0,0,.037Z" transform="translate(80.62 77.503) rotate(137)"/>
    <g id="Group_406" data-name="Group 406">
      <path id="Path_525" data-name="Path 525" d="M40.531,20.191c-7.62-7.619-22.742-4.345-23.38-4.2a1.535,1.535,0,0,0-1.161,1.158c-.143.64-3.418,15.761,4.2,23.381L22.018,42.4l1.375,1.385,20.3-20.139-1.5-1.623ZM18.8,18.8c3.306-.555,14.137-1.872,19.57,3.561a23.227,23.227,0,0,1,1.676,1.894,1.1,1.1,0,0,0,.49.472L24.723,40.531a.649.649,0,0,1-.472-.49,23.22,23.22,0,0,1-1.894-1.675C16.924,32.933,18.241,22.1,18.8,18.8Z"/>
      <path id="Path_526" data-name="Path 526" d="M40.531,20.191c-7.62-7.619-22.742-4.345-23.38-4.2a1.535,1.535,0,0,0-1.161,1.158c-.143.64-3.418,15.761,4.2,23.381L22.018,42.4l1.375,1.385,8.952-11.7,11.347-8.44-1.5-1.623ZM18.8,18.8c3.306-.555,14.137-1.872,19.57,3.561a23.227,23.227,0,0,1,1.676,1.894,1.1,1.1,0,0,0,.49.472L24.723,40.531a.649.649,0,0,1-.472-.49,23.22,23.22,0,0,1-1.894-1.675C16.924,32.933,18.241,22.1,18.8,18.8Z" transform="translate(56.033 -23.176) rotate(45)"/>
      <path id="Path_528" data-name="Path 528" d="M40.531,20.191c-7.62-7.619-22.742-4.345-23.38-4.2a1.535,1.535,0,0,0-1.161,1.158c-.143.64-3.418,15.761,4.2,23.381L22.018,42.4l1.375,1.385,20.3-20.139-1.5-1.623ZM18.8,18.8c3.306-.555,14.137-1.872,19.57,3.561a23.227,23.227,0,0,1,1.676,1.894,1.1,1.1,0,0,0,.49.472L24.723,40.531a.649.649,0,0,1-.472-.49,23.22,23.22,0,0,1-1.894-1.675C16.924,32.933,18.241,22.1,18.8,18.8Z" transform="translate(111.658 0.092) rotate(90)"/>
      <path id="Path_527" data-name="Path 527" d="M40.531,20.191c-7.62-7.619-22.742-4.345-23.38-4.2a1.535,1.535,0,0,0-1.161,1.158c-.143.64-3.418,15.761,4.2,23.381L22.018,42.4l1.375,1.385,20.3-20.139-1.5-1.623ZM18.8,18.8c3.306-.555,14.137-1.872,19.57,3.561a23.227,23.227,0,0,1,1.676,1.894,1.1,1.1,0,0,0,.49.472L24.723,40.531a.649.649,0,0,1-.472-.49,23.22,23.22,0,0,1-1.894-1.675C16.924,32.933,18.241,22.1,18.8,18.8Z" transform="translate(134.378 57.487) rotate(137)"/>
      <path id="Path_532" data-name="Path 532" d="M40.531,20.191c-7.62-7.619-22.742-4.345-23.38-4.2a1.535,1.535,0,0,0-1.161,1.158c-.143.64-3.418,15.761,4.2,23.381L22.018,42.4l1.375,1.385,20.3-20.139-1.5-1.623ZM18.8,18.8c3.306-.555,14.137-1.872,19.57,3.561a23.227,23.227,0,0,1,1.676,1.894,1.1,1.1,0,0,0,.49.472L24.723,40.531a.649.649,0,0,1-.472-.49,23.22,23.22,0,0,1-1.894-1.675C16.924,32.933,18.241,22.1,18.8,18.8Z" transform="translate(110.658 110.432) rotate(180)"/>
      <path id="Path_531" data-name="Path 531" d="M40.531,20.191c-7.62-7.619-22.742-4.345-23.38-4.2a1.535,1.535,0,0,0-1.161,1.158c-.143.64-3.418,15.761,4.2,23.381L22.018,42.4l1.375,1.385,9.074-11,11.225-9.142-1.5-1.623ZM18.8,18.8c3.306-.555,14.137-1.872,19.57,3.561a23.227,23.227,0,0,1,1.676,1.894,1.1,1.1,0,0,0,.49.472L24.723,40.531a.649.649,0,0,1-.472-.49,23.22,23.22,0,0,1-1.894-1.675C16.924,32.933,18.241,22.1,18.8,18.8Z" transform="translate(55.967 132.605) rotate(-135)"/>
      <path id="Path_530" data-name="Path 530" d="M40.531,20.191c-7.62-7.619-22.742-4.345-23.38-4.2a1.535,1.535,0,0,0-1.161,1.158c-.143.64-3.418,15.761,4.2,23.381L22.018,42.4l1.375,1.385,20.3-20.139-1.5-1.623ZM18.8,18.8c3.306-.555,14.137-1.872,19.57,3.561a23.227,23.227,0,0,1,1.676,1.894,1.1,1.1,0,0,0,.49.472L24.723,40.531a.649.649,0,0,1-.472-.49,23.22,23.22,0,0,1-1.894-1.675C16.924,32.933,18.241,22.1,18.8,18.8Z" transform="translate(0.955 110.432) rotate(-90)"/>
      <path id="Path_529" data-name="Path 529" d="M40.531,20.191c-7.62-7.619-22.742-4.345-23.38-4.2a1.535,1.535,0,0,0-1.161,1.158c-.143.64-3.418,15.761,4.2,23.381L22.018,42.4l1.375,1.385,20.3-20.139-1.5-1.623ZM18.8,18.8c3.306-.555,14.137-1.872,19.57,3.561a23.227,23.227,0,0,1,1.676,1.894,1.1,1.1,0,0,0,.49.472L24.723,40.531a.649.649,0,0,1-.472-.49,23.22,23.22,0,0,1-1.894-1.675C16.924,32.933,18.241,22.1,18.8,18.8Z" transform="translate(-22.746 55.967) rotate(-45)"/>
    </g>
    <g id="Group_407" data-name="Group 407" transform="translate(23.495 -16.34) rotate(21)">
      <path id="Path_529-2" data-name="Path 529" d="M29.963,15.477a39.121,39.121,0,0,0-12.813.514,1.535,1.535,0,0,0-1.161,1.158,41.21,41.21,0,0,0-.622,11.943c.2,1.994,14.858-.317,14.858-.317S31.9,15.769,29.963,15.477ZM18.8,18.8a38.28,38.28,0,0,1,10.86-.264c1.444.187.819,11.11.819,11.11s-11.893.684-12.1-1.323A37.94,37.94,0,0,1,18.8,18.8Z" transform="translate(-22.746 55.965) rotate(-45)"/>
      <path id="Path_535" data-name="Path 535" d="M29.963,15.477a39.121,39.121,0,0,0-12.813.514,1.535,1.535,0,0,0-1.161,1.158,41.21,41.21,0,0,0-.622,11.943c.2,1.994,14.858-.317,14.858-.317S31.9,15.769,29.963,15.477ZM18.8,18.8a38.28,38.28,0,0,1,10.86-.264c1.444.187.819,11.11.819,11.11s-11.893.684-12.1-1.323A37.94,37.94,0,0,1,18.8,18.8Z" transform="translate(60.685 -23.071) rotate(51)"/>
      <path id="Path_533" data-name="Path 533" d="M29.963,15.477a39.121,39.121,0,0,0-12.813.514,1.535,1.535,0,0,0-1.161,1.158,41.21,41.21,0,0,0-.622,11.943c.2,1.994,14.858-.317,14.858-.317S31.9,15.769,29.963,15.477ZM18.8,18.8a38.28,38.28,0,0,1,10.86-.264c1.444.187.819,11.11.819,11.11s-11.893.684-12.1-1.323A37.94,37.94,0,0,1,18.8,18.8Z" transform="translate(0.036 0.167) rotate(-1)"/>
      <path id="Path_534" data-name="Path 534" d="M29.963,15.477a39.121,39.121,0,0,0-12.813.514,1.535,1.535,0,0,0-1.161,1.158,41.21,41.21,0,0,0-.622,11.943c.2,1.994,14.858-.317,14.858-.317S31.9,15.769,29.963,15.477ZM18.8,18.8a38.28,38.28,0,0,1,10.86-.264c1.444.187.819,11.11.819,11.11s-11.893.684-12.1-1.323A37.94,37.94,0,0,1,18.8,18.8Z" transform="matrix(-0.035, 0.999, -0.999, -0.035, 113.024, 0.751)"/>
      <path id="Path_539" data-name="Path 539" d="M29.963,15.477a39.121,39.121,0,0,0-12.813.514,1.535,1.535,0,0,0-1.161,1.158,41.21,41.21,0,0,0-.622,11.943c.2,1.994,14.858-.317,14.858-.317S31.9,15.769,29.963,15.477ZM18.8,18.8a38.28,38.28,0,0,1,10.86-.264c1.444.187.819,11.11.819,11.11s-11.893.684-12.1-1.323A37.94,37.94,0,0,1,18.8,18.8Z" transform="matrix(-0.731, 0.682, -0.682, -0.731, 134.923, 56.949)"/>
      <path id="Path_538" data-name="Path 538" d="M29.963,15.477a39.121,39.121,0,0,0-12.813.514,1.535,1.535,0,0,0-1.161,1.158,41.21,41.21,0,0,0-.622,11.943c.2,1.994,14.858-.317,14.858-.317S31.9,15.769,29.963,15.477ZM18.8,18.8a38.28,38.28,0,0,1,10.86-.264c1.444.187.819,11.11.819,11.11s-11.893.684-12.1-1.323A37.94,37.94,0,0,1,18.8,18.8Z" transform="translate(55.909 133.522) rotate(-135)"/>
      <path id="Path_537" data-name="Path 537" d="M29.963,15.477a39.121,39.121,0,0,0-12.813.514,1.535,1.535,0,0,0-1.161,1.158,41.21,41.21,0,0,0-.622,11.943c.2,1.994,14.858-.317,14.858-.317S31.9,15.769,29.963,15.477ZM18.8,18.8a38.28,38.28,0,0,1,10.86-.264c1.444.187.819,11.11.819,11.11s-11.893.684-12.1-1.323A37.94,37.94,0,0,1,18.8,18.8Z" transform="translate(111.074 111.996) rotate(-178)"/>
      <path id="Path_536" data-name="Path 536" d="M29.963,15.477a39.121,39.121,0,0,0-12.813.514,1.535,1.535,0,0,0-1.161,1.158,41.21,41.21,0,0,0-.622,11.943c.2,1.994,14.858-.317,14.858-.317S31.9,15.769,29.963,15.477ZM18.8,18.8a38.28,38.28,0,0,1,10.86-.264c1.444.187.819,11.11.819,11.11s-11.893.684-12.1-1.323A37.94,37.94,0,0,1,18.8,18.8Z" transform="translate(0.381 111.715) rotate(-91)"/>
    </g>
    <path id="Path_524" data-name="Path 524" d="M107.643,73.248c0-17.228-16.7-34.486-34.2-34.486S38.73,56.274,38.73,73.5s17.208,34.562,34.71,34.562S107.643,90.476,107.643,73.248Zm-34.2,31.666c-15.136,0-31.126-16.325-31.126-31.412S58.3,41.682,73.44,41.682s31.009,16.733,31.009,31.82S88.576,104.914,73.44,104.914Z" transform="translate(-17.554 -18.502)"/>
    <path id="Path_540" data-name="Path 540" d="M62.037,48.5A13.537,13.537,0,1,0,75.574,62.037,13.537,13.537,0,0,0,62.037,48.5Zm0,24.017a10.48,10.48,0,1,1,10.48-10.48A10.48,10.48,0,0,1,62.037,72.517Z" transform="translate(-6.035 -7.035)"/>
    <path id="Path_541" data-name="Path 541" d="M63.05,56.5a6.55,6.55,0,1,0,6.55,6.55,6.55,6.55,0,0,0-6.55-6.55Zm0,10.044a3.493,3.493,0,1,1,3.493-3.493A3.493,3.493,0,0,1,63.05,66.544Z" transform="translate(-7.049 -8.047)"/>
  </g>
</svg>
