<svg xmlns="http://www.w3.org/2000/svg" width="112" height="111.998" viewBox="0 0 112 111.998">
  <g id="Branding" transform="translate(0 0)">
    <path id="Path_514" data-name="Path 514" d="M111.76,55.179c-.35-.554-8.729-13.562-19.5-13.562-.556,0-1.12.025-1.686.062.426-.374.843-.754,1.237-1.148,7.619-7.619,4.344-22.741,4.2-23.38a1.535,1.535,0,0,0-1.161-1.161c-.64-.143-15.762-3.412-23.381,4.2-.394.394-.773.81-1.147,1.237.037-.566.062-1.13.062-1.686C70.381,8.967,57.373.59,56.819.238a1.531,1.531,0,0,0-1.641,0c-.553.35-13.562,8.729-13.562,19.5,0,.556.026,1.12.063,1.686-.374-.426-.754-.843-1.148-1.237-7.62-7.619-22.742-4.345-23.38-4.2a1.535,1.535,0,0,0-1.161,1.158c-.143.64-3.418,15.761,4.2,23.381.394.394.81.773,1.237,1.147-.566-.037-1.13-.062-1.687-.062C8.967,41.617.59,54.625.238,55.179a1.531,1.531,0,0,0,0,1.641c.35.553,8.729,13.562,19.5,13.562.557,0,1.121-.026,1.687-.063-.427.374-.843.754-1.237,1.148-7.619,7.619-4.344,22.741-4.2,23.38a1.535,1.535,0,0,0,1.161,1.161,40.854,40.854,0,0,0,8.17.821c4.987,0,11.16-.972,15.212-5.022.394-.394.773-.81,1.147-1.237-.037.566-.063,1.13-.063,1.687,0,10.775,13.009,19.152,13.562,19.5a1.533,1.533,0,0,0,1.641,0c.554-.35,13.562-8.729,13.562-19.5,0-.557-.025-1.121-.062-1.687.374.426.754.843,1.148,1.237,4.051,4.051,10.221,5.022,15.21,5.022a40.869,40.869,0,0,0,8.171-.821,1.535,1.535,0,0,0,1.161-1.161c.143-.64,3.418-15.761-4.2-23.381-.394-.394-.81-.773-1.236-1.147.565.037,1.129.063,1.685.063,10.775,0,19.152-13.009,19.5-13.562a1.531,1.531,0,0,0,0-1.641ZM56,88.483A32.484,32.484,0,1,1,88.483,56,32.484,32.484,0,0,1,56,88.483ZM93.2,18.8c.555,3.306,1.872,14.138-3.561,19.57a23.226,23.226,0,0,1-1.894,1.676,35.719,35.719,0,0,0-5.568-8.057l5.354-5.354a1.531,1.531,0,0,0-2.166-2.166l-5.354,5.354a35.719,35.719,0,0,0-8.057-5.568,23.219,23.219,0,0,1,1.675-1.894C79.065,16.926,89.9,18.242,93.2,18.8ZM56,3.386c2.729,1.944,11.32,8.673,11.32,16.356a23.308,23.308,0,0,1-.145,2.52,35.349,35.349,0,0,0-9.643-1.771V12.933a1.531,1.531,0,1,0-3.062,0v7.558a35.349,35.349,0,0,0-9.643,1.771,23.31,23.31,0,0,1-.146-2.52C44.678,12.059,53.27,5.33,56,3.386ZM18.8,18.8c3.306-.555,14.137-1.872,19.57,3.561a23.227,23.227,0,0,1,1.676,1.894,35.719,35.719,0,0,0-8.057,5.568L26.63,24.464a1.531,1.531,0,1,0-2.166,2.166l5.354,5.354a35.719,35.719,0,0,0-5.568,8.057,23.22,23.22,0,0,1-1.894-1.675C16.924,32.933,18.241,22.1,18.8,18.8ZM3.386,56c1.944-2.729,8.673-11.32,16.355-11.32a23.31,23.31,0,0,1,2.521.145,35.35,35.35,0,0,0-1.771,9.643H12.933a1.531,1.531,0,1,0,0,3.062h7.558a35.349,35.349,0,0,0,1.771,9.643,23.26,23.26,0,0,1-2.521.146C12.059,67.319,5.33,58.728,3.386,56ZM18.8,93.2c-.555-3.306-1.872-14.138,3.561-19.57a23.228,23.228,0,0,1,1.894-1.676,35.718,35.718,0,0,0,5.568,8.057l-5.354,5.354a1.531,1.531,0,1,0,2.166,2.166l5.354-5.354a35.719,35.719,0,0,0,8.057,5.568,23.219,23.219,0,0,1-1.675,1.894C32.933,95.072,22.1,93.756,18.8,93.2ZM56,108.612c-2.729-1.944-11.321-8.673-11.321-16.355a23.313,23.313,0,0,1,.146-2.521,35.35,35.35,0,0,0,9.643,1.771v7.558a1.531,1.531,0,1,0,3.062,0V91.506a35.349,35.349,0,0,0,9.643-1.771,23.311,23.311,0,0,1,.145,2.521C67.318,99.939,58.728,106.667,56,108.612ZM93.2,93.2c-3.307.553-14.137,1.872-19.57-3.561a23.229,23.229,0,0,1-1.676-1.894,35.719,35.719,0,0,0,8.057-5.568l5.354,5.354a1.531,1.531,0,0,0,2.166-2.166l-5.354-5.354a35.719,35.719,0,0,0,5.568-8.057,23.219,23.219,0,0,1,1.894,1.675C95.074,79.064,93.757,89.9,93.2,93.2Zm-.947-25.883a23.257,23.257,0,0,1-2.52-.146,35.349,35.349,0,0,0,1.771-9.643h7.558a1.531,1.531,0,1,0,0-3.062H91.506a35.349,35.349,0,0,0-1.771-9.643,23.307,23.307,0,0,1,2.52-.145c7.683,0,14.412,8.591,16.356,11.32-1.944,2.729-8.673,11.321-16.356,11.321Z"/>
    <path id="Path_515" data-name="Path 515" d="M83.393,61.129c0-11.092-11.146-22.367-22.414-22.367S38.451,50.037,38.451,61.129,49.71,83.514,60.979,83.514,83.393,72.221,83.393,61.129ZM60.979,80.5c-9.745,0-19.324-9.659-19.324-19.373s9.579-19.482,19.324-19.482,19.355,9.769,19.355,19.482S70.724,80.5,60.979,80.5Z" transform="translate(-5.095 -5.095)"/>
    <path id="Path_516" data-name="Path 516" d="M.006.355A1.533,1.533,0,0,1,1.594-.917,1.485,1.485,0,0,1,3.072.388L2.8,8.164-.3,8.127Z" transform="matrix(0.999, -0.035, 0.035, 0.999, 54.49, 68.16)"/>
    <path id="Path_517" data-name="Path 517" d="M.31,7.808A1.532,1.532,0,0,0,1.9,9.081a1.485,1.485,0,0,0,1.479-1.3L3.1,0,0,.037Z" transform="matrix(0.999, 0.035, -0.035, 0.999, 54.471, 36.134)"/>
    <path id="Path_518" data-name="Path 518" d="M.006.355A1.533,1.533,0,0,1,1.594-.917,1.485,1.485,0,0,1,3.072.388L2.8,8.164-.3,8.127Z" transform="matrix(-0.035, -0.999, 0.999, -0.035, 67.928, 57.742)"/>
    <path id="Path_519" data-name="Path 519" d="M.31,7.808A1.532,1.532,0,0,0,1.9,9.081a1.485,1.485,0,0,0,1.479-1.3L3.1,0,0,.037Z" transform="matrix(0.035, -0.999, 0.999, 0.035, 35.902, 57.762)"/>
    <path id="Path_520" data-name="Path 520" d="M.006.355A1.533,1.533,0,0,1,1.594-.917,1.485,1.485,0,0,1,3.072.388L2.8,8.164-.3,8.127Z" transform="translate(65.502 48.866) rotate(-137)"/>
    <path id="Path_521" data-name="Path 521" d="M.31,7.808A1.532,1.532,0,0,0,1.9,9.081a1.485,1.485,0,0,0,1.479-1.3L3.1,0,0,.037Z" transform="translate(42.87 71.525) rotate(-133)"/>
    <path id="Path_522" data-name="Path 522" d="M.006.355A1.533,1.533,0,0,1,1.594-.917,1.485,1.485,0,0,1,3.072.388L2.8,8.164-.3,8.127Z" transform="translate(48.634 46.591) rotate(133)"/>
    <path id="Path_523" data-name="Path 523" d="M.31,7.808A1.532,1.532,0,0,0,1.9,9.081a1.485,1.485,0,0,0,1.479-1.3L3.1,0,0,.037Z" transform="translate(71.294 69.222) rotate(137)"/>
    <path id="Path_545" data-name="Path 545" d="M62.037,48.5A13.537,13.537,0,1,0,75.574,62.037,13.537,13.537,0,0,0,62.037,48.5Zm0,24.017a10.48,10.48,0,1,1,10.48-10.48A10.48,10.48,0,0,1,62.037,72.517Z" transform="translate(-6.035 -6.037)"/>
    <circle id="Ellipse_124" data-name="Ellipse 124" cx="3.75" cy="3.75" r="3.75" transform="translate(84 20)"/>
    <circle id="Ellipse_125" data-name="Ellipse 125" cx="3.75" cy="3.75" r="3.75" transform="translate(84 84)"/>
    <circle id="Ellipse_126" data-name="Ellipse 126" cx="3.75" cy="3.75" r="3.75" transform="translate(95 52.25)"/>
    <circle id="Ellipse_127" data-name="Ellipse 127" cx="3.75" cy="3.75" r="3.75" transform="translate(8 52.25)"/>
    <circle id="Ellipse_128" data-name="Ellipse 128" cx="3.75" cy="3.75" r="3.75" transform="translate(52.25 7)"/>
    <circle id="Ellipse_129" data-name="Ellipse 129" cx="3.75" cy="3.75" r="3.75" transform="translate(52.25 97)"/>
    <circle id="Ellipse_130" data-name="Ellipse 130" cx="3.75" cy="3.75" r="3.75" transform="translate(20.25 20)"/>
    <circle id="Ellipse_131" data-name="Ellipse 131" cx="3.75" cy="3.75" r="3.75" transform="translate(20.25 84)"/>
  </g>
</svg>
