<svg xmlns="http://www.w3.org/2000/svg" width="111.626" height="111.231" viewBox="0 0 111.626 111.231">
  <g id="Branding" transform="translate(-0.13 -0.157)">
    <g id="grondlager" transform="translate(0.895 0.729)">
      <path id="Path_560" data-name="Path 560" d="M43.664,87.949a15.452,15.452,0,0,0,1.322,11.1c3.047,5.625,10.85,11.171,10.85,11.171s7.555-5.412,10.642-11.171a17.09,17.09,0,0,0,1.664-11.33,40.868,40.868,0,0,1-11.9,2.309A42.034,42.034,0,0,1,43.664,87.949Z" transform="translate(-0.684 -1.407)" fill="none" stroke="#000" stroke-width="3"/>
      <path id="Path_563" data-name="Path 563" d="M.478,0A16.134,16.134,0,0,0,1.815,11.33C4.862,16.955,12.665,22.5,12.665,22.5S20.22,17.089,23.307,11.33A17.09,17.09,0,0,0,24.971,0a40.868,40.868,0,0,1-11.9,2.309A38.965,38.965,0,0,1,.478,0Z" transform="translate(86.493 67.589) rotate(-91)" fill="none" stroke="#000" stroke-width="3"/>
      <path id="Path_561" data-name="Path 561" d="M.478,0A16.134,16.134,0,0,0,1.815,11.33C4.862,16.955,12.665,22.5,12.665,22.5S20.22,17.089,23.307,11.33A16.065,16.065,0,0,0,24.93.305a46.612,46.612,0,0,1-11.859,2A38.965,38.965,0,0,1,.478,0Z" transform="translate(67.921 86.404) rotate(-45)" fill="none" stroke="#000" stroke-width="3"/>
      <path id="Path_562" data-name="Path 562" d="M.478,0A16.134,16.134,0,0,0,1.815,11.33C4.862,16.955,12.665,22.5,12.665,22.5S20.22,17.089,23.307,11.33A17.09,17.09,0,0,0,24.971,0a40.868,40.868,0,0,1-11.9,2.309A38.965,38.965,0,0,1,.478,0Z" transform="translate(85.809 41.573) rotate(-135)" fill="none" stroke="#000" stroke-width="3"/>
      <path id="Path_564" data-name="Path 564" d="M.471.266A15.423,15.423,0,0,0,1.815,11.33C4.862,16.955,12.665,22.5,12.665,22.5S20.22,17.089,23.307,11.33A17.09,17.09,0,0,0,24.971,0a40.868,40.868,0,0,1-11.9,2.309A42.9,42.9,0,0,1,.471.266Z" transform="translate(67.611 23.772) rotate(-180)" fill="none" stroke="#000" stroke-width="3"/>
      <path id="Path_565" data-name="Path 565" d="M.478,0A16.134,16.134,0,0,0,1.815,11.33C4.862,16.955,12.665,22.5,12.665,22.5S20.22,17.089,23.307,11.33A17.09,17.09,0,0,0,24.971,0a40.868,40.868,0,0,1-11.9,2.309A38.965,38.965,0,0,1,.478,0Z" transform="matrix(0.017, 1, -1, 0.017, 23.604, 42.499)" fill="none" stroke="#000" stroke-width="3"/>
      <path id="Path_566" data-name="Path 566" d="M.478,0A16.134,16.134,0,0,0,1.815,11.33C4.862,16.955,12.665,22.5,12.665,22.5S20.22,17.089,23.307,11.33A17.153,17.153,0,0,0,25.124.21a46.919,46.919,0,0,1-12.054,2.1A38.965,38.965,0,0,1,.478,0Z" transform="translate(42.176 23.685) rotate(135)" fill="none" stroke="#000" stroke-width="3"/>
      <path id="Path_567" data-name="Path 567" d="M.478,0A16.134,16.134,0,0,0,1.815,11.33C4.862,16.955,12.665,22.5,12.665,22.5S20.22,17.089,23.307,11.33A17.09,17.09,0,0,0,24.971,0a40.868,40.868,0,0,1-11.9,2.309A38.965,38.965,0,0,1,.478,0Z" transform="translate(24.287 68.515) rotate(45)" fill="none" stroke="#000" stroke-width="3"/>
    </g>
    <path id="Path_571" data-name="Path 571" d="M63.05,56.5a6.55,6.55,0,1,0,6.55,6.55,6.55,6.55,0,0,0-6.55-6.55Zm0,10.044a3.493,3.493,0,1,1,3.493-3.493A3.493,3.493,0,0,1,63.05,66.544Z" transform="translate(-7.5 -7.5)"/>
    <g id="grondlager-2" data-name="grondlager" transform="translate(23.895 23.728)">
      <path id="Path_560-2" data-name="Path 560" d="M43.454,87.852a8.8,8.8,0,0,0,.752,6.321c1.734,3.2,6.176,6.359,6.176,6.359s4.3-3.081,6.058-6.359a9.728,9.728,0,0,0,.947-6.45,23.263,23.263,0,0,1-6.774,1.315A23.927,23.927,0,0,1,43.454,87.852Z" transform="translate(-18.512 -38.041)" fill="none" stroke="#000" stroke-width="3"/>
      <path id="Path_563-2" data-name="Path 563" d="M.272,0a9.184,9.184,0,0,0,.761,6.45c1.734,3.2,6.176,6.359,6.176,6.359s4.3-3.081,6.058-6.359A9.728,9.728,0,0,0,14.215,0,23.264,23.264,0,0,1,7.44,1.315,22.18,22.18,0,0,1,.272,0Z" transform="translate(49.711 39.022) rotate(-91)" fill="none" stroke="#000" stroke-width="3"/>
      <path id="Path_561-2" data-name="Path 561" d="M.272,0a9.184,9.184,0,0,0,.761,6.45c1.734,3.2,6.176,6.359,6.176,6.359s4.3-3.081,6.058-6.359A9.145,9.145,0,0,0,14.191.174,26.533,26.533,0,0,1,7.44,1.315,22.18,22.18,0,0,1,.272,0Z" transform="translate(39.139 49.732) rotate(-45)" fill="none" stroke="#000" stroke-width="3"/>
      <path id="Path_562-2" data-name="Path 562" d="M.272,0a9.184,9.184,0,0,0,.761,6.45c1.734,3.2,6.176,6.359,6.176,6.359s4.3-3.081,6.058-6.359A9.728,9.728,0,0,0,14.215,0,23.264,23.264,0,0,1,7.44,1.315,22.18,22.18,0,0,1,.272,0Z" transform="translate(49.322 24.213) rotate(-135)" fill="none" stroke="#000" stroke-width="3"/>
      <path id="Path_564-2" data-name="Path 564" d="M.27.151a8.779,8.779,0,0,0,.765,6.3c1.734,3.2,6.176,6.359,6.176,6.359s4.3-3.081,6.058-6.359A9.728,9.728,0,0,0,14.216,0,23.264,23.264,0,0,1,7.442,1.315,24.418,24.418,0,0,1,.27.151Z" transform="translate(38.965 14.08) rotate(-180)" fill="none" stroke="#000" stroke-width="3"/>
      <path id="Path_565-2" data-name="Path 565" d="M.272,0a9.184,9.184,0,0,0,.761,6.45c1.734,3.2,6.176,6.359,6.176,6.359s4.3-3.081,6.058-6.359A9.728,9.728,0,0,0,14.215,0,23.264,23.264,0,0,1,7.44,1.315,22.18,22.18,0,0,1,.272,0Z" transform="matrix(0.017, 1, -1, 0.017, 13.913, 24.74)" fill="none" stroke="#000" stroke-width="3"/>
      <path id="Path_566-2" data-name="Path 566" d="M.272,0a9.184,9.184,0,0,0,.761,6.45c1.734,3.2,6.176,6.359,6.176,6.359s4.3-3.081,6.058-6.359A9.764,9.764,0,0,0,14.3.119a26.708,26.708,0,0,1-6.861,1.2A22.18,22.18,0,0,1,.272,0Z" transform="translate(24.484 14.03) rotate(135)" fill="none" stroke="#000" stroke-width="3"/>
      <path id="Path_567-2" data-name="Path 567" d="M.272,0a9.184,9.184,0,0,0,.761,6.45c1.734,3.2,6.176,6.359,6.176,6.359s4.3-3.081,6.058-6.359A9.728,9.728,0,0,0,14.215,0,23.264,23.264,0,0,1,7.44,1.315,22.18,22.18,0,0,1,.272,0Z" transform="translate(14.302 39.549) rotate(45)" fill="none" stroke="#000" stroke-width="3"/>
    </g>
  </g>
</svg>
