<svg xmlns="http://www.w3.org/2000/svg" width="111.626" height="111.231" viewBox="0 0 111.626 111.231">
  <g id="Frontend_development" transform="translate(-0.009 -0.036)">
    <path id="Path_542" data-name="Path 542" d="M-19113.957-21018.557l-4.764,11.811-11.857,4.744,5.359,11.811-5.359,11.727,11.857,5.432,4.764,12.125,12.059-5.328,11.857,5.328,4.762-12.125,11.854-5.432-5.152-11.727,5.152-11.811-11.854-4.744-4.762-11.811-11.857,5.121Z" transform="translate(19157.957 21044.936)" fill="none" stroke="#000" stroke-linejoin="round" stroke-width="3"/>
    <g id="grondlager" transform="translate(0.773 0.607)">
      <path id="Path_560" data-name="Path 560" d="M43.664,87.949a15.452,15.452,0,0,0,1.322,11.1c3.047,5.625,10.85,11.171,10.85,11.171s7.555-5.412,10.642-11.171a17.09,17.09,0,0,0,1.664-11.33,40.868,40.868,0,0,1-11.9,2.309A42.034,42.034,0,0,1,43.664,87.949Z" transform="translate(-0.684 -1.407)" fill="none" stroke="#000" stroke-width="3"/>
      <path id="Path_563" data-name="Path 563" d="M.478,0A16.134,16.134,0,0,0,1.815,11.33C4.862,16.955,12.665,22.5,12.665,22.5S20.22,17.089,23.307,11.33A17.09,17.09,0,0,0,24.971,0a40.868,40.868,0,0,1-11.9,2.309A38.965,38.965,0,0,1,.478,0Z" transform="translate(86.493 67.589) rotate(-91)" fill="none" stroke="#000" stroke-width="3"/>
      <path id="Path_561" data-name="Path 561" d="M.478,0A16.134,16.134,0,0,0,1.815,11.33C4.862,16.955,12.665,22.5,12.665,22.5S20.22,17.089,23.307,11.33A16.065,16.065,0,0,0,24.93.305a46.612,46.612,0,0,1-11.859,2A38.965,38.965,0,0,1,.478,0Z" transform="translate(67.921 86.404) rotate(-45)" fill="none" stroke="#000" stroke-width="3"/>
      <path id="Path_562" data-name="Path 562" d="M.478,0A16.134,16.134,0,0,0,1.815,11.33C4.862,16.955,12.665,22.5,12.665,22.5S20.22,17.089,23.307,11.33A17.09,17.09,0,0,0,24.971,0a40.868,40.868,0,0,1-11.9,2.309A38.965,38.965,0,0,1,.478,0Z" transform="translate(85.809 41.573) rotate(-135)" fill="none" stroke="#000" stroke-width="3"/>
      <path id="Path_564" data-name="Path 564" d="M.471.266A15.423,15.423,0,0,0,1.815,11.33C4.862,16.955,12.665,22.5,12.665,22.5S20.22,17.089,23.307,11.33A17.09,17.09,0,0,0,24.971,0a40.868,40.868,0,0,1-11.9,2.309A42.9,42.9,0,0,1,.471.266Z" transform="translate(67.611 23.772) rotate(-180)" fill="none" stroke="#000" stroke-width="3"/>
      <path id="Path_565" data-name="Path 565" d="M.478,0A16.134,16.134,0,0,0,1.815,11.33C4.862,16.955,12.665,22.5,12.665,22.5S20.22,17.089,23.307,11.33A17.09,17.09,0,0,0,24.971,0a40.868,40.868,0,0,1-11.9,2.309A38.965,38.965,0,0,1,.478,0Z" transform="matrix(0.017, 1, -1, 0.017, 23.604, 42.499)" fill="none" stroke="#000" stroke-width="3"/>
      <path id="Path_566" data-name="Path 566" d="M.478,0A16.134,16.134,0,0,0,1.815,11.33C4.862,16.955,12.665,22.5,12.665,22.5S20.22,17.089,23.307,11.33A17.153,17.153,0,0,0,25.124.21a46.919,46.919,0,0,1-12.054,2.1A38.965,38.965,0,0,1,.478,0Z" transform="translate(42.176 23.685) rotate(135)" fill="none" stroke="#000" stroke-width="3"/>
      <path id="Path_567" data-name="Path 567" d="M.478,0A16.134,16.134,0,0,0,1.815,11.33C4.862,16.955,12.665,22.5,12.665,22.5S20.22,17.089,23.307,11.33A17.09,17.09,0,0,0,24.971,0a40.868,40.868,0,0,1-11.9,2.309A38.965,38.965,0,0,1,.478,0Z" transform="translate(24.287 68.515) rotate(45)" fill="none" stroke="#000" stroke-width="3"/>
    </g>
    <path id="Path_570" data-name="Path 570" d="M63.05,56.5a6.55,6.55,0,1,0,6.55,6.55,6.55,6.55,0,0,0-6.55-6.55Zm0,10.044a3.493,3.493,0,1,1,3.493-3.493A3.493,3.493,0,0,1,63.05,66.544Z" transform="translate(-7.621 -7.621)"/>
  </g>
</svg>
