<svg xmlns="http://www.w3.org/2000/svg" width="112.001" height="112.001" viewBox="0 0 112.001 112.001">
  <g id="Frontend_development" transform="translate(0.122 0.122)">
    <path id="Path_511" data-name="Path 511" d="M110.914,54.458,97.027,48.98a15.083,15.083,0,0,0-7.174-17.314l5.948-13.7a1.529,1.529,0,0,0-2.009-2.009l-13.7,5.944a15.083,15.083,0,0,0-17.314-7.171L57.3.846a1.528,1.528,0,0,0-2.844,0L48.98,14.735a14.993,14.993,0,0,0-4.1-.577,15.145,15.145,0,0,0-13.209,7.748l-13.7-5.947a1.529,1.529,0,0,0-2.009,2.009l5.944,13.7A15.087,15.087,0,0,0,14.734,48.98L.846,54.458a1.528,1.528,0,0,0,0,2.844l13.886,5.478a15.088,15.088,0,0,0,7.174,17.314l-5.948,13.7A1.528,1.528,0,0,0,17.966,95.8l13.7-5.944A15.145,15.145,0,0,0,44.875,97.6a14.993,14.993,0,0,0,4.1-.577l5.478,13.886a1.528,1.528,0,0,0,2.844,0l5.478-13.886a15.083,15.083,0,0,0,17.314-7.171l13.7,5.948A1.529,1.529,0,0,0,95.8,93.793l-5.944-13.7a15.083,15.083,0,0,0,7.171-17.314L110.911,57.3a1.528,1.528,0,0,0,0-2.844ZM94.545,44.875a11.961,11.961,0,0,1-.377,2.977l-1.327-.522-8.36-3.3,4.149-9.55a12.094,12.094,0,0,1,5.914,10.393ZM76.268,56.491l4.154,9.553-9.694,3.822a1.526,1.526,0,0,0-.861.86l-3.823,9.7-9.552-4.154a1.521,1.521,0,0,0-1.217,0l-9.557,4.154-3.823-9.694a1.526,1.526,0,0,0-.861-.861l-9.69-3.822,4.149-9.553a1.528,1.528,0,0,0,0-1.217l-4.149-9.558,9.69-3.822a1.526,1.526,0,0,0,.861-.861l3.823-9.694,9.552,4.154a1.521,1.521,0,0,0,1.217,0l9.555-4.149,3.825,9.69a1.526,1.526,0,0,0,.861.86l9.694,3.822-4.154,9.554a1.528,1.528,0,0,0,0,1.223ZM86.476,31.766v.007L81.644,42.888l-.01.023-9.17-3.617-3.616-9.17.023-.01,11.117-4.827h.007L91.45,20.308ZM66.884,17.214a12.1,12.1,0,0,1,10.393,5.914l-9.555,4.149-3.817-9.686a11.965,11.965,0,0,1,2.978-.377Zm-11-11.64,6.4,16.219L64.921,28.5,55.88,32.424l-9.041-3.93,2.645-6.706Zm-11,11.64a11.961,11.961,0,0,1,2.977.377l-3.819,9.687-9.551-4.149A12.094,12.094,0,0,1,44.875,17.214ZM31.764,25.283h.007l11.117,4.832.023.01L39.295,39.3l-9.17,3.614-.01-.023L25.287,31.775v-.007l-4.979-11.46ZM17.592,47.854a11.946,11.946,0,0,1-.377-2.979,12.094,12.094,0,0,1,5.914-10.392l4.148,9.553-8.36,3.3Zm4.2,1.63L28.5,46.839l3.927,9.041-3.93,9.041-6.707-2.645L5.574,55.88Zm-4.576,17.4a11.947,11.947,0,0,1,.377-2.98l1.327.524,8.36,3.3-4.149,9.55A12.1,12.1,0,0,1,17.214,66.884Zm12.91,1.965,9.17,3.617,3.616,9.17-.023.01L31.775,86.473h-.007L20.312,91.451Zm14.751,25.7a12.094,12.094,0,0,1-10.393-5.914l9.554-4.148,3.817,9.686a11.965,11.965,0,0,1-2.978.377Zm11,11.64-6.4-16.219-2.645-6.706,9.041-3.925,9.041,3.93-2.645,6.706Zm11-11.643a11.961,11.961,0,0,1-2.977-.377l3.818-9.687,9.552,4.152a12.1,12.1,0,0,1-10.393,5.914ZM80,86.474h-.007l-11.116-4.83-.023-.01,3.616-9.17,9.17-3.617.01.023,4.827,11.117v.007l4.978,11.456ZM94.168,63.906a11.965,11.965,0,0,1,.377,2.979,12.094,12.094,0,0,1-5.914,10.392l-4.148-9.553,8.36-3.3Zm-4.2-1.63-6.707,2.645L79.336,55.88l3.93-9.041,6.707,2.645,16.213,6.4Z" transform="translate(0 0)"/>
    <path id="Path_512" data-name="Path 512" d="M62.037,48.5A13.537,13.537,0,1,0,75.574,62.037,13.537,13.537,0,0,0,62.037,48.5Zm0,24.017a10.48,10.48,0,1,1,10.48-10.48A10.48,10.48,0,0,1,62.037,72.517Z" transform="translate(-6.157 -6.157)"/>
    <path id="Path_513" data-name="Path 513" d="M63.05,56.5a6.55,6.55,0,1,0,6.55,6.55,6.55,6.55,0,0,0-6.55-6.55Zm0,10.044a3.493,3.493,0,1,1,3.493-3.493A3.493,3.493,0,0,1,63.05,66.544Z" transform="translate(-7.17 -7.17)"/>
    <path id="Path_542" data-name="Path 542" d="M-19102.771-21018.557l-7.971,19.764-19.836,7.932,8.967,19.764-8.967,19.615,19.836,9.09,7.971,20.289,20.172-8.918,19.838,8.918,7.971-20.289,19.832-9.09-8.621-19.615,8.621-19.764-19.832-7.932-7.971-19.764-19.838,8.568Z" transform="translate(19138.666 21026.281)" fill="none" stroke="#000" stroke-linejoin="round" stroke-width="3"/>
  </g>
</svg>
