<svg xmlns="http://www.w3.org/2000/svg" width="111.626" height="111.231" viewBox="0 0 111.626 111.231">
  <g id="User_Interface" transform="translate(-0.13 0.841)">
    <path id="Path_541" data-name="Path 541" d="M63.05,56.5a6.55,6.55,0,1,0,6.55,6.55,6.55,6.55,0,0,0-6.55-6.55Zm0,10.044a3.493,3.493,0,1,1,3.493-3.493A3.493,3.493,0,0,1,63.05,66.544Z" transform="translate(-7.5 -8.498)"/>
    <path id="Path_544" data-name="Path 544" d="M-19116.512-21018.555s-.3,6.229-4.031,10-10.891,5.074-10.891,5.074,5.447,4.848,5.332,9.705-5.793,9.723-5.793,9.723,6.662.1,10.307,3.66,4.271,10.572,4.271,10.572,4.74-4.246,10.023-4.117,11.109,4.637,11.109,4.637.48-7.039,3.945-10.719,9.91-4,9.91-4-4.27-5.391-4.238-10.52,4.363-10,4.363-10-6.52-.512-10.035-4.014-4.029-10-4.029-10-4.979,4.332-10.039,4.332S-19116.512-21018.555-19116.512-21018.555Z" transform="translate(9907.043 26677.5) rotate(22)" fill="none" stroke="#000" stroke-linejoin="round" stroke-width="3"/>
    <g id="grondlager" transform="translate(0.895 -0.27)">
      <path id="Path_560" data-name="Path 560" d="M43.664,87.949a15.452,15.452,0,0,0,1.322,11.1c3.047,5.625,10.85,11.171,10.85,11.171s7.555-5.412,10.642-11.171a17.09,17.09,0,0,0,1.664-11.33,40.868,40.868,0,0,1-11.9,2.309A42.034,42.034,0,0,1,43.664,87.949Z" transform="translate(-0.684 -1.407)" fill="none" stroke="#000" stroke-width="3"/>
      <path id="Path_563" data-name="Path 563" d="M.478,0A16.134,16.134,0,0,0,1.815,11.33C4.862,16.955,12.665,22.5,12.665,22.5S20.22,17.089,23.307,11.33A17.09,17.09,0,0,0,24.971,0a40.868,40.868,0,0,1-11.9,2.309A38.965,38.965,0,0,1,.478,0Z" transform="translate(86.493 67.589) rotate(-91)" fill="none" stroke="#000" stroke-width="3"/>
      <path id="Path_561" data-name="Path 561" d="M.478,0A16.134,16.134,0,0,0,1.815,11.33C4.862,16.955,12.665,22.5,12.665,22.5S20.22,17.089,23.307,11.33A16.065,16.065,0,0,0,24.93.305a46.612,46.612,0,0,1-11.859,2A38.965,38.965,0,0,1,.478,0Z" transform="translate(67.921 86.404) rotate(-45)" fill="none" stroke="#000" stroke-width="3"/>
      <path id="Path_562" data-name="Path 562" d="M.478,0A16.134,16.134,0,0,0,1.815,11.33C4.862,16.955,12.665,22.5,12.665,22.5S20.22,17.089,23.307,11.33A17.09,17.09,0,0,0,24.971,0a40.868,40.868,0,0,1-11.9,2.309A38.965,38.965,0,0,1,.478,0Z" transform="translate(85.809 41.573) rotate(-135)" fill="none" stroke="#000" stroke-width="3"/>
      <path id="Path_564" data-name="Path 564" d="M.471.266A15.423,15.423,0,0,0,1.815,11.33C4.862,16.955,12.665,22.5,12.665,22.5S20.22,17.089,23.307,11.33A17.09,17.09,0,0,0,24.971,0a40.868,40.868,0,0,1-11.9,2.309A42.9,42.9,0,0,1,.471.266Z" transform="translate(67.611 23.772) rotate(-180)" fill="none" stroke="#000" stroke-width="3"/>
      <path id="Path_565" data-name="Path 565" d="M.478,0A16.134,16.134,0,0,0,1.815,11.33C4.862,16.955,12.665,22.5,12.665,22.5S20.22,17.089,23.307,11.33A17.09,17.09,0,0,0,24.971,0a40.868,40.868,0,0,1-11.9,2.309A38.965,38.965,0,0,1,.478,0Z" transform="matrix(0.017, 1, -1, 0.017, 23.604, 42.499)" fill="none" stroke="#000" stroke-width="3"/>
      <path id="Path_566" data-name="Path 566" d="M.478,0A16.134,16.134,0,0,0,1.815,11.33C4.862,16.955,12.665,22.5,12.665,22.5S20.22,17.089,23.307,11.33A17.153,17.153,0,0,0,25.124.21a46.919,46.919,0,0,1-12.054,2.1A38.965,38.965,0,0,1,.478,0Z" transform="translate(42.176 23.685) rotate(135)" fill="none" stroke="#000" stroke-width="3"/>
      <path id="Path_567" data-name="Path 567" d="M.478,0A16.134,16.134,0,0,0,1.815,11.33C4.862,16.955,12.665,22.5,12.665,22.5S20.22,17.089,23.307,11.33A17.09,17.09,0,0,0,24.971,0a40.868,40.868,0,0,1-11.9,2.309A38.965,38.965,0,0,1,.478,0Z" transform="translate(24.287 68.515) rotate(45)" fill="none" stroke="#000" stroke-width="3"/>
    </g>
  </g>
</svg>
