<svg id="User_experience" xmlns="http://www.w3.org/2000/svg" width="112.002" height="112" viewBox="0 0 112.002 112">
  <path id="Path_480" data-name="Path 480" d="M111.762,55.18c-.35-.554-8.729-13.562-19.5-13.562-.556,0-1.119.025-1.685.062.426-.374.843-.754,1.236-1.148,7.619-7.619,4.344-22.741,4.2-23.381a1.534,1.534,0,0,0-1.161-1.161c-.64-.143-15.761-3.418-23.381,4.2-.394.394-.774.81-1.148,1.236.037-.566.062-1.13.062-1.685C70.382,8.966,57.374.59,56.82.238a1.531,1.531,0,0,0-1.641,0c-.553.35-13.562,8.728-13.562,19.5,0,.556.026,1.119.063,1.685-.374-.426-.754-.843-1.148-1.236-7.619-7.619-22.741-4.343-23.381-4.2A1.534,1.534,0,0,0,15.99,17.15c-.143.64-3.418,15.761,4.2,23.382.394.393.81.773,1.236,1.147-.566-.037-1.129-.062-1.686-.062C8.967,41.618.59,54.626.238,55.18a1.531,1.531,0,0,0,0,1.641c.35.553,8.729,13.562,19.5,13.562.557,0,1.12-.026,1.686-.063-.426.374-.843.754-1.236,1.148-7.62,7.619-4.344,22.741-4.2,23.381a1.534,1.534,0,0,0,1.161,1.161,40.847,40.847,0,0,0,8.17.821c4.987,0,11.161-.972,15.211-5.022.394-.394.774-.81,1.148-1.236-.037.566-.063,1.13-.063,1.686,0,10.776,13.009,19.152,13.562,19.5a1.533,1.533,0,0,0,1.641,0c.554-.35,13.562-8.728,13.562-19.5,0-.556-.025-1.12-.062-1.686.374.426.754.843,1.148,1.236,4.051,4.051,10.222,5.022,15.211,5.022a40.863,40.863,0,0,0,8.17-.821,1.534,1.534,0,0,0,1.161-1.161c.143-.64,3.418-15.761-4.2-23.382-.394-.393-.81-.773-1.236-1.147.566.037,1.129.063,1.685.063,10.776,0,19.153-13.009,19.5-13.562a1.531,1.531,0,0,0,0-1.641ZM88.137,51.265c.057.384.1.77.144,1.156-3.2-2.516-8.781-6-15.272-6a21.99,21.99,0,0,0-10.1,2.663,21.994,21.994,0,0,0,2.663-10.1c0-6.491-3.481-12.075-6-15.273A32.5,32.5,0,0,1,88.135,51.264Zm0,9.469a32.788,32.788,0,0,1-19.2,25.055,32.375,32.375,0,0,1-9.355,2.491c2.516-3.2,6-8.782,6-15.272a22,22,0,0,0-2.663-10.1,21.99,21.99,0,0,0,10.095,2.663c6.492,0,12.075-3.48,15.272-6-.042.385-.088.771-.144,1.155Zm-36.872,27.4A32.79,32.79,0,0,1,26.2,68.9a32.3,32.3,0,0,1-2.475-9.32c3.2,2.516,8.781,6,15.271,6a21.991,21.991,0,0,0,10.1-2.663,22,22,0,0,0-2.663,10.1c0,6.49,3.481,12.075,6,15.272-.386-.044-.772-.089-1.156-.146Zm-27.4-36.87a32.79,32.79,0,0,1,19.2-25.055,32.367,32.367,0,0,1,9.355-2.491c-2.516,3.2-6,8.782-6,15.273a21.994,21.994,0,0,0,2.663,10.095,21.991,21.991,0,0,0-10.1-2.663c-6.491,0-12.075,3.48-15.271,6C23.762,52.035,23.808,51.649,23.865,51.265Zm40.337.6a19.037,19.037,0,0,1,8.806-2.376c6.617,0,12.418,4.433,14.775,6.513-2.357,2.08-8.158,6.513-14.776,6.513A19.037,19.037,0,0,1,64.2,60.136a9.146,9.146,0,0,0,.848-2.6h9a1.531,1.531,0,0,0,0-3.062h-9a9.118,9.118,0,0,0-.848-2.6ZM56,87.785c-2.081-2.35-6.511-8.137-6.511-14.777A19.054,19.054,0,0,1,51.865,64.2a9.15,9.15,0,0,0,2.606.847v9a1.531,1.531,0,0,0,3.063,0v-9a9.15,9.15,0,0,0,2.606-.847,19.054,19.054,0,0,1,2.376,8.806c0,6.617-4.437,12.421-6.514,14.777Zm-8.2-27.65a19.037,19.037,0,0,1-8.807,2.376c-6.618,0-12.42-4.432-14.777-6.512,2.357-2.08,8.158-6.513,14.775-6.513A19.037,19.037,0,0,1,47.8,51.864a9.146,9.146,0,0,0-.848,2.6h-9a1.531,1.531,0,0,0,0,3.062h9a9.118,9.118,0,0,0,.848,2.6Zm11.924-8.986a6.116,6.116,0,1,1-7.448,0,6.116,6.116,0,0,1,7.448,0Zm.413-3.351a9.15,9.15,0,0,0-2.606-.847v-9a1.531,1.531,0,1,0-3.062,0v9a9.15,9.15,0,0,0-2.606.847,19.053,19.053,0,0,1-2.376-8.805c0-6.619,4.435-12.425,6.514-14.778,2.081,2.35,6.511,8.137,6.511,14.778A19.053,19.053,0,0,1,60.137,47.8Zm13.5-25.441C79.067,16.925,89.9,18.245,93.2,18.8c.555,3.3,1.872,14.137-3.561,19.569a23.454,23.454,0,0,1-1.877,1.681,35.566,35.566,0,0,0-5.585-8.062l5.354-5.355a1.531,1.531,0,1,0-2.166-2.166L80.015,29.82a35.571,35.571,0,0,0-8.062-5.582,23.484,23.484,0,0,1,1.68-1.88ZM56,3.386c2.729,1.938,11.319,8.654,11.319,16.356a23.183,23.183,0,0,1-.139,2.515,35.487,35.487,0,0,0-9.649-1.77V12.933a1.531,1.531,0,0,0-3.062,0v7.554a35.488,35.488,0,0,0-9.649,1.77,23.186,23.186,0,0,1-.14-2.515C44.679,12.058,53.273,5.328,56,3.386ZM18.8,18.8c3.306-.557,14.137-1.872,19.571,3.56a23.481,23.481,0,0,1,1.68,1.877,35.543,35.543,0,0,0-8.062,5.586l-5.354-5.356a1.531,1.531,0,1,0-2.166,2.166l5.354,5.355a35.567,35.567,0,0,0-5.582,8.062,23.617,23.617,0,0,1-1.877-1.68C16.924,32.934,18.241,22.1,18.8,18.8ZM3.386,56c1.944-2.73,8.673-11.32,16.355-11.32a23.166,23.166,0,0,1,2.516.139,35.561,35.561,0,0,0-1.77,9.649H12.933a1.531,1.531,0,1,0,0,3.062h7.554a35.561,35.561,0,0,0,1.77,9.649,23.165,23.165,0,0,1-2.516.14C12.059,67.321,5.33,58.73,3.386,56ZM38.367,89.643C32.934,95.075,22.1,93.755,18.8,93.2c-.555-3.3-1.872-14.137,3.561-19.569a23.456,23.456,0,0,1,1.88-1.681,35.566,35.566,0,0,0,5.585,8.062L24.468,85.37a1.531,1.531,0,1,0,2.166,2.166l5.354-5.356a35.57,35.57,0,0,0,8.062,5.586,23.481,23.481,0,0,1-1.684,1.877ZM56,108.614c-2.729-1.938-11.32-8.654-11.32-16.355a23.193,23.193,0,0,1,.14-2.516,35.525,35.525,0,0,0,9.649,1.766v7.558a1.531,1.531,0,1,0,3.063,0V91.508a35.525,35.525,0,0,0,9.65-1.766,23.19,23.19,0,0,1,.139,2.516C67.32,99.941,58.727,106.672,56,108.614ZM93.2,93.2c-3.307.556-14.139,1.872-19.571-3.56a23.484,23.484,0,0,1-1.68-1.877,35.543,35.543,0,0,0,8.062-5.586l5.354,5.356a1.531,1.531,0,0,0,2.166-2.166l-5.354-5.355a35.567,35.567,0,0,0,5.585-8.062,23.616,23.616,0,0,1,1.877,1.68C95.076,79.066,93.759,89.9,93.2,93.2Zm-.947-25.882a23.165,23.165,0,0,1-2.515-.14,35.561,35.561,0,0,0,1.77-9.649h7.554a1.531,1.531,0,1,0,0-3.062H91.514a35.562,35.562,0,0,0-1.77-9.649,23.163,23.163,0,0,1,2.515-.139c7.683,0,14.412,8.59,16.356,11.32-1.945,2.73-8.674,11.321-16.357,11.321Z" transform="translate(0 0)"/>
  <path id="Path_481" data-name="Path 481" d="M82,39.07A3.731,3.731,0,1,0,85.723,42.8,3.731,3.731,0,0,0,82,39.07Zm0,5.013a1.283,1.283,0,1,1,1.28-1.285A1.283,1.283,0,0,1,82,44.083Z" transform="translate(-8.633 -4.16)"/>
  <path id="Path_482" data-name="Path 482" d="M42.8,78.263A3.732,3.732,0,1,0,46.533,82,3.732,3.732,0,0,0,42.8,78.263Zm0,5.014A1.283,1.283,0,1,1,44.084,82,1.283,1.283,0,0,1,42.8,83.277Z" transform="translate(-4.16 -8.636)"/>
  <path id="Path_483" data-name="Path 483" d="M82,78.263A3.732,3.732,0,1,0,85.727,82,3.732,3.732,0,0,0,82,78.263Zm0,5.015A1.283,1.283,0,1,1,83.278,82,1.283,1.283,0,0,1,82,83.278Z" transform="translate(-8.637 -8.637)"/>
  <path id="Path_484" data-name="Path 484" d="M42.8,46.534A3.733,3.733,0,1,0,39.07,42.8,3.733,3.733,0,0,0,42.8,46.534Zm0-5.015A1.283,1.283,0,1,1,41.519,42.8,1.283,1.283,0,0,1,42.8,41.519Z" transform="translate(-4.162 -4.162)"/>
  <g id="Ellipse_115" data-name="Ellipse 115" transform="translate(30 30)" fill="none" stroke="#000" stroke-width="3">
    <circle cx="26" cy="26" r="26" stroke="none"/>
    <circle cx="26" cy="26" r="24.5" fill="none"/>
  </g>
  <circle id="Ellipse_116" data-name="Ellipse 116" cx="3.75" cy="3.75" r="3.75" transform="translate(84 20)"/>
  <circle id="Ellipse_120" data-name="Ellipse 120" cx="3.75" cy="3.75" r="3.75" transform="translate(84 84)"/>
  <circle id="Ellipse_122" data-name="Ellipse 122" cx="3.75" cy="3.75" r="3.75" transform="translate(95 52.25)"/>
  <circle id="Ellipse_123" data-name="Ellipse 123" cx="3.75" cy="3.75" r="3.75" transform="translate(8 52.25)"/>
  <circle id="Ellipse_117" data-name="Ellipse 117" cx="3.75" cy="3.75" r="3.75" transform="translate(52.25 7)"/>
  <circle id="Ellipse_121" data-name="Ellipse 121" cx="3.75" cy="3.75" r="3.75" transform="translate(52.25 97)"/>
  <circle id="Ellipse_118" data-name="Ellipse 118" cx="3.75" cy="3.75" r="3.75" transform="translate(20.25 20)"/>
  <circle id="Ellipse_119" data-name="Ellipse 119" cx="3.75" cy="3.75" r="3.75" transform="translate(20.25 84)"/>
</svg>
