<svg xmlns="http://www.w3.org/2000/svg" width="111.626" height="111.231" viewBox="0 0 111.626 111.231">
  <g id="User_Interface" transform="translate(-0.13 0.841)">
    <path id="Path_541" data-name="Path 541" d="M63.05,56.5a6.55,6.55,0,1,0,6.55,6.55,6.55,6.55,0,0,0-6.55-6.55Zm0,10.044a3.493,3.493,0,1,1,3.493-3.493A3.493,3.493,0,0,1,63.05,66.544Z" transform="translate(-7.5 -8.498)"/>
    <g id="grondlager" transform="translate(0.895 -0.27)">
      <path id="Path_560" data-name="Path 560" d="M43.664,87.949a15.452,15.452,0,0,0,1.322,11.1c3.047,5.625,10.85,11.171,10.85,11.171s7.555-5.412,10.642-11.171a17.09,17.09,0,0,0,1.664-11.33,40.868,40.868,0,0,1-11.9,2.309A42.034,42.034,0,0,1,43.664,87.949Z" transform="translate(-0.684 -1.407)" fill="none" stroke="#000" stroke-width="3"/>
      <path id="Path_563" data-name="Path 563" d="M.478,0A16.134,16.134,0,0,0,1.815,11.33C4.862,16.955,12.665,22.5,12.665,22.5S20.22,17.089,23.307,11.33A17.09,17.09,0,0,0,24.971,0a40.868,40.868,0,0,1-11.9,2.309A38.965,38.965,0,0,1,.478,0Z" transform="translate(86.493 67.589) rotate(-91)" fill="none" stroke="#000" stroke-width="3"/>
      <path id="Path_561" data-name="Path 561" d="M.478,0A16.134,16.134,0,0,0,1.815,11.33C4.862,16.955,12.665,22.5,12.665,22.5S20.22,17.089,23.307,11.33A16.065,16.065,0,0,0,24.93.305a46.612,46.612,0,0,1-11.859,2A38.965,38.965,0,0,1,.478,0Z" transform="translate(67.921 86.404) rotate(-45)" fill="none" stroke="#000" stroke-width="3"/>
      <path id="Path_562" data-name="Path 562" d="M.478,0A16.134,16.134,0,0,0,1.815,11.33C4.862,16.955,12.665,22.5,12.665,22.5S20.22,17.089,23.307,11.33A17.09,17.09,0,0,0,24.971,0a40.868,40.868,0,0,1-11.9,2.309A38.965,38.965,0,0,1,.478,0Z" transform="translate(85.809 41.573) rotate(-135)" fill="none" stroke="#000" stroke-width="3"/>
      <path id="Path_564" data-name="Path 564" d="M.471.266A15.423,15.423,0,0,0,1.815,11.33C4.862,16.955,12.665,22.5,12.665,22.5S20.22,17.089,23.307,11.33A17.09,17.09,0,0,0,24.971,0a40.868,40.868,0,0,1-11.9,2.309A42.9,42.9,0,0,1,.471.266Z" transform="translate(67.611 23.772) rotate(-180)" fill="none" stroke="#000" stroke-width="3"/>
      <path id="Path_565" data-name="Path 565" d="M.478,0A16.134,16.134,0,0,0,1.815,11.33C4.862,16.955,12.665,22.5,12.665,22.5S20.22,17.089,23.307,11.33A17.09,17.09,0,0,0,24.971,0a40.868,40.868,0,0,1-11.9,2.309A38.965,38.965,0,0,1,.478,0Z" transform="matrix(0.017, 1, -1, 0.017, 23.604, 42.499)" fill="none" stroke="#000" stroke-width="3"/>
      <path id="Path_566" data-name="Path 566" d="M.478,0A16.134,16.134,0,0,0,1.815,11.33C4.862,16.955,12.665,22.5,12.665,22.5S20.22,17.089,23.307,11.33A17.153,17.153,0,0,0,25.124.21a46.919,46.919,0,0,1-12.054,2.1A38.965,38.965,0,0,1,.478,0Z" transform="translate(42.176 23.685) rotate(135)" fill="none" stroke="#000" stroke-width="3"/>
      <path id="Path_567" data-name="Path 567" d="M.478,0A16.134,16.134,0,0,0,1.815,11.33C4.862,16.955,12.665,22.5,12.665,22.5S20.22,17.089,23.307,11.33A17.09,17.09,0,0,0,24.971,0a40.868,40.868,0,0,1-11.9,2.309A38.965,38.965,0,0,1,.478,0Z" transform="translate(24.287 68.515) rotate(45)" fill="none" stroke="#000" stroke-width="3"/>
    </g>
    <g id="Ellipse_144" data-name="Ellipse 144" transform="translate(35 34.002)" fill="none" stroke="#000" stroke-width="3">
      <circle cx="20.5" cy="20.5" r="20.5" stroke="none"/>
      <circle cx="20.5" cy="20.5" r="19" fill="none"/>
    </g>
    <path id="Path_577" data-name="Path 577" d="M-19113.75-21018.555s.105,8.672-4.3,13.115-13.3,4.66-13.3,4.66,7.766,5.752,7.629,11.482-8.172,11.432-8.172,11.432,9.594-.432,13.891,3.768,3.3,13.021,3.3,13.021,6.313-6.812,12.543-6.656,12.379,7.268,12.379,7.268-1.662-9.941,2.424-14.281,13.92-3.084,13.92-3.084-8.035-5.861-8-11.908,8.145-12.291,8.145-12.291-10.07,1.559-14.215-2.572-2.375-13.953-2.375-13.953-6.117,7.492-12.082,7.492S-19113.75-21018.555-19113.75-21018.555Z" transform="translate(-1278.494 28404.156) rotate(45)" fill="none" stroke="#000" stroke-linejoin="round" stroke-width="3"/>
  </g>
</svg>
