<svg xmlns="http://www.w3.org/2000/svg" width="311.444" height="261.929" viewBox="0 0 311.444 261.929">
  <g id="briefing" transform="matrix(0.996, 0.087, -0.087, 0.996, 11.237, -20.277)">
    <g id="mental-health" transform="translate(0.002 128.955) rotate(-29)">
      <path id="Path_476" data-name="Path 476" d="M53.044,0C74.12,0,91.2,12.575,91.2,28.086c0,9.679-6.653,18.215-16.936,23.345-2.489,1.242,1.435,9.118.709,16.228s-7.883,3.758-8.222,3.582c-3.709,0-21.007-15.458-24.571-16.222C26.484,51.655,14.31,47.245,0,36.257,0,20.745,31.969,0,53.044,0Z" transform="translate(137.208 132.094)" fill="#ff6363"/>
      <path id="Path_420" data-name="Path 420" d="M245.888,96.307a46.847,46.847,0,0,0-39.761-63.258A46.85,46.85,0,0,0,132.994,9.56,46.85,46.85,0,0,0,59.862,33.049,46.847,46.847,0,0,0,20.1,96.306,38.29,38.29,0,0,0,38.295,168.29H227.7a38.289,38.289,0,0,0,18.192-71.983Z" transform="translate(0 0)" fill="#ffa6a6"/>
      <g id="Group_378" data-name="Group 378" transform="translate(162.947 12.333)">
        <path id="Path_421" data-name="Path 421" d="M15.673,17.9A24.613,24.613,0,0,0,4.292,11.233,5.7,5.7,0,1,1,7.12.18,35.671,35.671,0,0,1,23.862,9.958,5.7,5.7,0,1,1,15.673,17.9Z" transform="translate(0 0)" fill="#fff"/>
      </g>
      <g id="Group_379" data-name="Group 379" transform="translate(135.368 14.563)">
        <path id="Path_422" data-name="Path 422" d="M1.126,13.764A5.7,5.7,0,0,1,2.3,5.783,59.179,59.179,0,0,1,10.314.637a5.7,5.7,0,0,1,5.235,10.138,48.443,48.443,0,0,0-6.442,4.167A5.7,5.7,0,0,1,1.126,13.764Z" transform="translate(0 0)" fill="#ffcdcd"/>
      </g>
      <g id="Group_380" data-name="Group 380" transform="translate(17.789 4.801)">
        <path id="Path_423" data-name="Path 423" d="M49.128,24.259a46.717,46.717,0,0,0-13.619-7.31,22.7,22.7,0,0,0,8.55-11.4A4.279,4.279,0,0,0,35.887,3.01c-1.521,4.9-6.42,8.093-10.262,9.913a39.4,39.4,0,0,1-3.894,1.585h0c-.408-.011-.815-.026-1.226-.026A46.651,46.651,0,0,0,0,19.2a46.5,46.5,0,0,0,2.313,8.441,38.193,38.193,0,0,1,41.571,3.394,4.285,4.285,0,0,0,5.244-6.777Z" transform="translate(0 63.863)" fill="#ffd8d8"/>
        <path id="Path_424" data-name="Path 424" d="M39.154,42.683c-4.947-.025-8.034-1.133-9.958-2.458a6.339,6.339,0,0,1-2.589-6.3A46.835,46.835,0,0,1,44.4,4.759,46.84,46.84,0,0,0,36.71,0,55.382,55.382,0,0,0,17.9,34.195a8.84,8.84,0,0,1-4.279,6.41,18.273,18.273,0,0,1-9.167,2.078A4.407,4.407,0,0,0,0,46.79a4.278,4.278,0,0,0,4.275,4.45c9.377,0,14.654-3.189,17.525-6.119,2.871,2.931,8.148,6.119,17.525,6.119A4.278,4.278,0,0,0,43.6,46.793,4.405,4.405,0,0,0,39.154,42.683Z" transform="translate(70.809 0)" fill="#ffd8d8"/>
        <path id="Path_425" data-name="Path 425" d="M37.174,12.308a47.153,47.153,0,0,0-5.488.326C26.827,6.906,18.54,1.124,4.619.015a4.278,4.278,0,1,0-.68,8.529c8.148.65,13.844,3.193,17.827,6.362A46.737,46.737,0,0,0,8.549,22.085a4.285,4.285,0,0,0,5.245,6.777,38.192,38.192,0,0,1,41.571-3.394,46.513,46.513,0,0,0,2.313-8.441A46.653,46.653,0,0,0,37.174,12.308Z" transform="translate(172.733 66.038)" fill="#ffd8d8"/>
        <path id="Path_426" data-name="Path 426" d="M31.754,2.989C27.955,15,20.546,20.067,14.76,22.2A38.047,38.047,0,0,1,8.535,5.237a4.279,4.279,0,1,0-8.508.92A46.883,46.883,0,0,0,19.646,39.239H46.585A38.135,38.135,0,0,1,20.575,29.012C27.1,25.931,35.544,19.384,39.914,5.569a4.279,4.279,0,1,0-8.159-2.58Z" transform="translate(163.322 124.25)" fill="#ffd8d8"/>
      </g>
      <g id="Group_383" data-name="Group 383" transform="translate(33.058 108.895)">
        <ellipse id="Ellipse_106" data-name="Ellipse 106" cx="9.844" cy="7.911" rx="9.844" ry="7.911" transform="translate(0 31.131)" fill="#ffcdcd"/>
        <ellipse id="Ellipse_107" data-name="Ellipse 107" cx="9.844" cy="7.911" rx="9.844" ry="7.911" transform="translate(115.85 31.131)" fill="#ffcdcd"/>
        <ellipse id="Ellipse_108" data-name="Ellipse 108" cx="19.521" cy="19.521" rx="19.521" ry="19.521" transform="translate(7.201 0)" fill="#fff"/>
        <ellipse id="Ellipse_109" data-name="Ellipse 109" cx="19.521" cy="19.521" rx="19.521" ry="19.521" transform="translate(89.295 0)" fill="#fff"/>
        <g id="Group_382" data-name="Group 382" transform="translate(15.087 7.886)">
          <g id="Group_381" data-name="Group 381">
            <ellipse id="Ellipse_110" data-name="Ellipse 110" cx="11.635" cy="11.635" rx="11.635" ry="11.635" fill="#262626"/>
            <ellipse id="Ellipse_111" data-name="Ellipse 111" cx="11.635" cy="11.635" rx="11.635" ry="11.635" transform="translate(82.094 0)" fill="#262626"/>
          </g>
          <path id="Path_427" data-name="Path 427" d="M10.147,8.339a13.635,13.635,0,0,1-9.3-3.747A2.649,2.649,0,1,1,4.451.707a8.124,8.124,0,0,0,11.394,0,2.649,2.649,0,0,1,3.6,3.885A13.637,13.637,0,0,1,10.147,8.339Z" transform="translate(42.535 22.787)" fill="#262626"/>
        </g>
      </g>
    </g>
  </g>
</svg>
