<svg xmlns="http://www.w3.org/2000/svg" width="340.585" height="385.483" viewBox="0 0 340.585 385.483">
  <g id="Group_400" data-name="Group 400" transform="matrix(0.996, 0.087, -0.087, 0.996, 12.289, -22.174)">
    <path id="Path_468" data-name="Path 468" d="M117.938,0c64.7,0,117.875,3.558,117.875,20.011s-50.229,27.63-114.926,27.631S0,36.35,0,19.9,53.241,0,117.938,0Z" transform="matrix(0.996, -0.087, 0.087, 0.996, 95.686, 353.019)" fill="#262626" opacity="0.31"/>
    <g id="mental-health" transform="translate(0.002 141.021) rotate(-29)">
      <path id="Path_476" data-name="Path 476" d="M58.007,0C81.055,0,99.739,13.751,99.739,30.714c0,10.585-7.275,19.919-18.52,25.529-2.722,1.358,1.57,9.972.775,17.747S73.373,78.1,73,77.907c-4.056,0-22.972-16.9-26.87-17.74C28.962,56.489,15.649,51.665,0,39.649,0,22.686,34.96,0,58.007,0Z" transform="translate(150.046 144.454)" fill="#ff6363"/>
      <path id="Path_420" data-name="Path 420" d="M268.895,105.319a51.231,51.231,0,0,0-43.481-69.177,51.234,51.234,0,0,0-79.976-25.687A51.233,51.233,0,0,0,65.463,36.141a51.23,51.23,0,0,0-43.481,69.177,41.872,41.872,0,0,0,19.9,78.718H249a41.872,41.872,0,0,0,19.895-78.718Z" transform="translate(0 0)" fill="#ffa6a6"/>
      <g id="Group_378" data-name="Group 378" transform="translate(178.193 13.487)">
        <path id="Path_421" data-name="Path 421" d="M17.14,19.576A26.916,26.916,0,0,0,4.694,12.284,6.238,6.238,0,1,1,7.786.2,39.009,39.009,0,0,1,26.1,10.89a6.238,6.238,0,1,1-8.955,8.686Z" transform="translate(0 0)" fill="#fff"/>
      </g>
      <g id="Group_379" data-name="Group 379" transform="translate(148.034 15.925)">
        <path id="Path_422" data-name="Path 422" d="M1.231,15.052A6.238,6.238,0,0,1,2.519,6.324,64.716,64.716,0,0,1,11.279.7,6.238,6.238,0,0,1,17,11.783,52.975,52.975,0,0,0,9.959,16.34,6.238,6.238,0,0,1,1.231,15.052Z" transform="translate(0 0)" fill="#ffcdcd"/>
      </g>
      <g id="Group_380" data-name="Group 380" transform="translate(19.453 5.25)">
        <path id="Path_423" data-name="Path 423" d="M53.725,26.529a51.088,51.088,0,0,0-14.893-7.994,24.828,24.828,0,0,0,9.35-12.467,4.679,4.679,0,0,0-8.937-2.776c-1.663,5.354-7.021,8.85-11.222,10.841a43.09,43.09,0,0,1-4.259,1.734h0c-.446-.012-.891-.028-1.341-.028A51.016,51.016,0,0,0,0,21a50.846,50.846,0,0,0,2.529,9.23A41.766,41.766,0,0,1,47.99,33.94a4.686,4.686,0,0,0,5.735-7.412Z" transform="translate(0 69.839)" fill="#ffd8d8"/>
        <path id="Path_424" data-name="Path 424" d="M42.817,46.677c-5.41-.028-8.785-1.239-10.889-2.688A6.932,6.932,0,0,1,29.1,37.095,51.217,51.217,0,0,1,48.551,5.2,51.222,51.222,0,0,0,40.145,0a60.564,60.564,0,0,0-20.57,37.394A9.667,9.667,0,0,1,14.9,44.4c-2.166,1.252-5.354,2.245-10.024,2.272A4.819,4.819,0,0,0,0,51.168a4.679,4.679,0,0,0,4.675,4.866c10.255,0,16.025-3.487,19.164-6.692,3.139,3.2,8.91,6.692,19.164,6.692a4.678,4.678,0,0,0,4.675-4.863A4.817,4.817,0,0,0,42.817,46.677Z" transform="translate(77.434 0)" fill="#ffd8d8"/>
        <path id="Path_425" data-name="Path 425" d="M40.652,13.46a51.564,51.564,0,0,0-6,.357C29.337,7.553,20.275,1.229,5.051.016a4.678,4.678,0,1,0-.743,9.327c8.91.71,15.14,3.492,19.5,6.957a51.11,51.11,0,0,0-14.454,7.85,4.686,4.686,0,0,0,5.735,7.411A41.766,41.766,0,0,1,60.545,27.85a50.865,50.865,0,0,0,2.529-9.23A51.018,51.018,0,0,0,40.652,13.46Z" transform="translate(188.895 72.217)" fill="#ffd8d8"/>
        <path id="Path_426" data-name="Path 426" d="M34.725,3.269C30.57,16.407,22.468,21.945,16.141,24.277A41.607,41.607,0,0,1,9.333,5.727a4.679,4.679,0,1,0-9.3,1.006A51.269,51.269,0,0,0,21.484,42.91H50.943A41.7,41.7,0,0,1,22.5,31.727C29.632,28.358,38.87,21.2,43.648,6.09a4.679,4.679,0,1,0-8.923-2.821Z" transform="translate(178.604 135.876)" fill="#ffd8d8"/>
      </g>
      <g id="Group_383" data-name="Group 383" transform="translate(36.151 119.084)">
        <ellipse id="Ellipse_106" data-name="Ellipse 106" cx="10.765" cy="8.652" rx="10.765" ry="8.652" transform="translate(0 34.043)" fill="#ffcdcd"/>
        <ellipse id="Ellipse_107" data-name="Ellipse 107" cx="10.765" cy="8.652" rx="10.765" ry="8.652" transform="translate(126.689 34.044)" fill="#ffcdcd"/>
        <ellipse id="Ellipse_108" data-name="Ellipse 108" cx="21.348" cy="21.348" rx="21.348" ry="21.348" transform="translate(7.874 0)" fill="#fff"/>
        <ellipse id="Ellipse_109" data-name="Ellipse 109" cx="21.348" cy="21.348" rx="21.348" ry="21.348" transform="translate(97.65 0)" fill="#fff"/>
        <g id="Group_382" data-name="Group 382" transform="translate(16.499 8.624)">
          <g id="Group_381" data-name="Group 381">
            <ellipse id="Ellipse_110" data-name="Ellipse 110" cx="12.723" cy="12.723" rx="12.723" ry="12.723" fill="#262626"/>
            <ellipse id="Ellipse_111" data-name="Ellipse 111" cx="12.723" cy="12.723" rx="12.723" ry="12.723" transform="translate(89.776 0)" fill="#262626"/>
          </g>
          <path id="Path_427" data-name="Path 427" d="M11.1,9.119A14.911,14.911,0,0,1,.928,5.022,2.9,2.9,0,1,1,4.867.773a8.884,8.884,0,0,0,12.46,0,2.9,2.9,0,0,1,3.94,4.249A14.913,14.913,0,0,1,11.1,9.119Z" transform="translate(46.515 24.919)" fill="#262626"/>
        </g>
      </g>
    </g>
  </g>
</svg>
