<svg xmlns="http://www.w3.org/2000/svg" width="268.886" height="261.476" viewBox="0 0 268.886 261.476">
  <g id="design" transform="translate(81.115 -30.475) rotate(31)">
    <ellipse id="Ellipse_105" data-name="Ellipse 105" cx="117.385" cy="23.932" rx="117.385" ry="23.932" transform="translate(44.101 209.255) rotate(-54)" fill="#ddd"/>
    <path id="Path_413" data-name="Path 413" d="M0,46.007S19.165,74.624,122.028,73.465,243.942,46,243.942,46L239.383,0S212.957,25.327,122.906,25.528,4.559,0,4.559,0Z" transform="translate(59.379 225.992) rotate(-54)" fill="#fff"/>
    <path id="Path_415" data-name="Path 415" d="M100.291,0C155.68,0,201.885,9.263,201.885,20.593S158.2,32.8,102.815,32.805,0,31.845,0,20.515,44.9,0,100.291,0Z" transform="translate(0 157.493) rotate(-54)" fill="#fd627e"/>
    <path id="Path_414" data-name="Path 414" d="M0,57.794S14.768,79.632,102.966,77.484s98.947-19.692,98.947-19.692V0S179.19,11.339,101.76,11.512,0,0,0,0Z" transform="translate(16.575 169.533) rotate(-54)" fill="#fa163f"/>
    <path id="Path_477" data-name="Path 477" d="M8.529,10.2q.516.016,1.054.024t1.476.008a43.2,43.2,0,0,0,5.507-.318A20.994,20.994,0,0,0,20.738,9a7.509,7.509,0,0,0,2.648-1.464,2.606,2.606,0,0,0,.937-1.949A1.45,1.45,0,0,0,23.9,4.575a3.347,3.347,0,0,0-1.383-.78,12.276,12.276,0,0,0-2.484-.5,32.884,32.884,0,0,0-3.679-.175q-1.406,0-2.859.048ZM31.821,5.458a3.69,3.69,0,0,1-1.547,2.88A12.949,12.949,0,0,1,25.846,10.5a39.926,39.926,0,0,1-7.006,1.361,81.783,81.783,0,0,1-9.326.477q-1.968,0-4.546-.08T0,12L7.545,1.353q2.671-.175,5.132-.247t4.429-.072a54.313,54.313,0,0,1,6.21.318,26.025,26.025,0,0,1,4.64.907,8.527,8.527,0,0,1,2.882,1.4A2.324,2.324,0,0,1,31.821,5.458Zm3,3.453a2.7,2.7,0,0,1,1.054-1.973,9.517,9.517,0,0,1,2.976-1.695A24.016,24.016,0,0,1,43.514,4.05,37.328,37.328,0,0,1,49.583,3.6a27.168,27.168,0,0,1,3.046.159,15.206,15.206,0,0,1,2.46.461,5.109,5.109,0,0,1,1.64.74,1.242,1.242,0,0,1,.586.995q0,.891-1.172,1.512a11.737,11.737,0,0,1-3.257,1.011,40.916,40.916,0,0,1-4.944.565q-2.859.175-6.233.175a2.021,2.021,0,0,0,1.429.947,15.665,15.665,0,0,0,3.491.278q1.5,0,3.046-.088t2.906-.263l.516,1.862q-1.312.175-3.351.318t-4.429.143a36.2,36.2,0,0,1-4.9-.278,15.018,15.018,0,0,1-3.234-.756,4.567,4.567,0,0,1-1.8-1.114A2.016,2.016,0,0,1,34.821,8.912ZM48.458,5.474a13.707,13.707,0,0,0-4.194.581A4.061,4.061,0,0,0,41.9,7.591q2.906-.032,4.686-.167A25.574,25.574,0,0,0,49.349,7.1a3.981,3.981,0,0,0,1.312-.414q.328-.223.328-.446Q50.989,5.474,48.458,5.474ZM66.267,10.5a15.353,15.353,0,0,0,3.281-.231q.89-.231.89-.5a.374.374,0,0,0-.164-.3,1.708,1.708,0,0,0-.539-.239A10.235,10.235,0,0,0,68.7,9q-.656-.119-1.687-.278-1.172-.175-2.2-.374a12.164,12.164,0,0,1-1.8-.477,4.24,4.24,0,0,1-1.218-.637,1.065,1.065,0,0,1-.445-.851q0-1.289,2.788-2.037A33.406,33.406,0,0,1,72.266,3.6q2.531,0,4.5.191t3.187.414l-2.39,1.766q-.984-.175-2.531-.334a29.751,29.751,0,0,0-3.046-.159q-.656,0-1.289.024a10.848,10.848,0,0,0-1.172.1,3.486,3.486,0,0,0-.867.223q-.328.143-.328.382,0,.318.726.477t2.039.382q1.828.3,3.046.557a12.389,12.389,0,0,1,1.945.541,2.769,2.769,0,0,1,1.054.652,1.246,1.246,0,0,1,.328.859,1.339,1.339,0,0,1-.633,1,5.933,5.933,0,0,1-1.992.875,22.529,22.529,0,0,1-3.468.621,45.873,45.873,0,0,1-5.061.239q-1.828,0-3.3-.08t-2.6-.2q-1.125-.119-1.9-.247t-1.2-.207l2.39-1.814q.8.159,2.484.4A29.677,29.677,0,0,0,66.267,10.5ZM87.825,12.19H80.889l5.858-8.371H93.73ZM91.2,2.8a10.783,10.783,0,0,1-2.624-.294q-1.172-.294-1.172-.9a.809.809,0,0,1,.4-.629A3.728,3.728,0,0,1,88.856.469,9.241,9.241,0,0,1,90.379.127,12.754,12.754,0,0,1,92.23,0a10.783,10.783,0,0,1,2.624.294q1.172.294,1.172.9a.809.809,0,0,1-.4.629,3.728,3.728,0,0,1-1.054.509,9.241,9.241,0,0,1-1.523.342A12.754,12.754,0,0,1,91.2,2.8Zm24.229,8.339a6.565,6.565,0,0,1-1.851,1.79,10.625,10.625,0,0,1-2.859,1.257,23.244,23.244,0,0,1-4.1.748,55.09,55.09,0,0,1-5.577.247q-2.952,0-4.968-.183t-3.655-.454l2.343-1.878q1.453.223,3.023.382t3.866.159a16.911,16.911,0,0,0,4.522-.454,3.51,3.51,0,0,0,1.992-1.17l.187-.3q-.937.159-1.992.255t-2.226.1a26.925,26.925,0,0,1-3.8-.231,11.2,11.2,0,0,1-2.6-.645,3.941,3.941,0,0,1-1.5-.979,1.84,1.84,0,0,1-.492-1.233,2.633,2.633,0,0,1,1.312-2.14,11.475,11.475,0,0,1,3.491-1.552,31.086,31.086,0,0,1,5.015-.939,53.163,53.163,0,0,1,5.928-.318q2.249,0,4.452.159t4.312.493Zm-3.093-5.49q-.8-.064-1.968-.064a21.255,21.255,0,0,0-3.187.215,12.794,12.794,0,0,0-2.414.581,4.369,4.369,0,0,0-1.547.883,1.525,1.525,0,0,0-.539,1.106,1.059,1.059,0,0,0,.141.533,1.145,1.145,0,0,0,.516.43,3.9,3.9,0,0,0,1.031.294,10.054,10.054,0,0,0,1.64.111q.656,0,1.757-.08a8.5,8.5,0,0,0,1.992-.366ZM126.395,4.2q.8-.08,1.757-.183t2.156-.191q1.2-.088,2.671-.143t3.351-.056q5.53,0,7.592,1.082t.7,2.96l-3.187,4.519h-6.983l3.093-4.424a4.644,4.644,0,0,0,.445-.8.7.7,0,0,0-.023-.684A1.454,1.454,0,0,0,137.1,5.8a8.693,8.693,0,0,0-2.085-.183q-1.359,0-2.765.1l-4.546,6.477h-6.983Z" transform="matrix(0.588, -0.809, 0.809, 0.588, 24.671, 138.147)" fill="#fff"/>
    <g id="Group_404" data-name="Group 404" transform="matrix(0.921, 0.391, -0.391, 0.921, 112.811, -47.39)">
      <rect id="Rectangle_494" data-name="Rectangle 494" width="4.384" height="26.306" transform="translate(40.389 5.454) rotate(-7)" fill="#fa163f"/>
      <rect id="Rectangle_493" data-name="Rectangle 493" width="4.384" height="35.074" transform="matrix(0.899, -0.438, 0.438, 0.899, 14.666, 1.922)" fill="#fa163f"/>
      <rect id="Rectangle_495" data-name="Rectangle 495" width="4.384" height="26.305" transform="matrix(0.469, -0.883, 0.883, 0.469, 0, 30.055)" fill="#fa163f"/>
    </g>
  </g>
</svg>
