<svg xmlns="http://www.w3.org/2000/svg" width="306.647" height="372.416" viewBox="0 0 306.647 372.416">
  <g id="Group_377" data-name="Group 377" transform="translate(95.934 -40.46) rotate(31)">
    <path id="Path_479" data-name="Path 479" d="M117.938,0c64.7,0,117.875,3.558,117.875,20.011s-50.229,27.63-114.926,27.631S0,36.35,0,19.9,53.241,0,117.938,0Z" transform="matrix(0.857, -0.515, 0.515, 0.857, 143.716, 339.741)" fill="#262626" opacity="0.31"/>
    <ellipse id="Ellipse_105" data-name="Ellipse 105" cx="133.87" cy="27.292" rx="133.87" ry="27.292" transform="translate(50.294 245.296) rotate(-54)" fill="#ddd"/>
    <path id="Path_413" data-name="Path 413" d="M0,52.468S21.856,85.1,139.165,83.782,278.2,52.466,278.2,52.466L273,0S242.863,28.883,140.166,29.113,5.2,0,5.2,0Z" transform="translate(67.718 264.383) rotate(-54)" fill="#fff"/>
    <path id="Path_415" data-name="Path 415" d="M114.375,0c63.167,0,115.862,10.564,115.862,23.485S180.42,37.412,117.253,37.412,0,36.317,0,23.4,51.207,0,114.375,0Z" transform="translate(0 186.265) rotate(-54)" fill="#fd627e"/>
    <path id="Path_414" data-name="Path 414" d="M0,65.91s16.842,24.9,117.425,22.455S230.267,65.908,230.267,65.908V0S204.354,12.931,116.051,13.129,0,0,0,0Z" transform="translate(18.902 199.996) rotate(-54)" fill="#fa163f"/>
    <path id="Path_477" data-name="Path 477" d="M13.627-28.2q.588.018,1.2.027t1.684.009a49.269,49.269,0,0,0,6.28-.363,23.942,23.942,0,0,0,4.757-1.044,8.564,8.564,0,0,0,3.02-1.67,2.972,2.972,0,0,0,1.069-2.223,1.653,1.653,0,0,0-.481-1.152,3.817,3.817,0,0,0-1.577-.889,14,14,0,0,0-2.833-.572,37.5,37.5,0,0,0-4.2-.2q-1.6,0-3.26.054ZM40.19-33.607a4.209,4.209,0,0,1-1.764,3.285,14.768,14.768,0,0,1-5.051,2.459,45.533,45.533,0,0,1-7.99,1.552,93.267,93.267,0,0,1-10.636.544q-2.245,0-5.184-.091T3.9-26.148l8.6-12.141q3.046-.2,5.852-.281t5.051-.082a61.941,61.941,0,0,1,7.082.363,29.68,29.68,0,0,1,5.291,1.034,9.725,9.725,0,0,1,3.287,1.6A2.651,2.651,0,0,1,40.19-33.607Zm3.421,3.938a3.084,3.084,0,0,1,1.2-2.25,10.854,10.854,0,0,1,3.394-1.933,27.389,27.389,0,0,1,5.318-1.361,42.57,42.57,0,0,1,6.921-.517,30.983,30.983,0,0,1,3.474.181,17.341,17.341,0,0,1,2.806.526,5.826,5.826,0,0,1,1.871.844,1.416,1.416,0,0,1,.668,1.134q0,1.016-1.336,1.724a13.386,13.386,0,0,1-3.715,1.152,46.662,46.662,0,0,1-5.639.644q-3.26.2-7.108.2a2.3,2.3,0,0,0,1.63,1.08,17.865,17.865,0,0,0,3.982.318q1.71,0,3.474-.1t3.314-.3l.588,2.123q-1.5.2-3.821.363t-5.051.163A41.287,41.287,0,0,1,50-25.994a17.127,17.127,0,0,1-3.688-.862,5.208,5.208,0,0,1-2.058-1.27A2.3,2.3,0,0,1,43.611-29.669Zm15.553-3.92a15.632,15.632,0,0,0-4.783.662,4.632,4.632,0,0,0-2.7,1.751q3.314-.036,5.345-.191a29.164,29.164,0,0,0,3.153-.372,4.54,4.54,0,0,0,1.5-.472q.374-.254.374-.508Q62.049-33.589,59.163-33.589Zm20.31,5.735a17.509,17.509,0,0,0,3.741-.263q1.015-.263,1.015-.572a.427.427,0,0,0-.187-.345,1.948,1.948,0,0,0-.615-.272,11.672,11.672,0,0,0-1.176-.263q-.748-.136-1.924-.318-1.336-.2-2.512-.426a13.873,13.873,0,0,1-2.058-.544,4.836,4.836,0,0,1-1.39-.726,1.214,1.214,0,0,1-.508-.971q0-1.47,3.18-2.323a38.1,38.1,0,0,1,9.273-.853q2.886,0,5.131.218t3.634.472l-2.726,2.014q-1.122-.2-2.886-.381a33.928,33.928,0,0,0-3.474-.181q-.748,0-1.47.027a12.372,12.372,0,0,0-1.336.118,3.976,3.976,0,0,0-.989.254q-.374.163-.374.436,0,.363.828.544t2.325.436q2.084.345,3.474.635a14.13,14.13,0,0,1,2.218.617,3.157,3.157,0,0,1,1.2.744,1.421,1.421,0,0,1,.374.98,1.527,1.527,0,0,1-.722,1.143,6.766,6.766,0,0,1-2.271,1,25.693,25.693,0,0,1-3.955.708,52.315,52.315,0,0,1-5.772.272q-2.084,0-3.768-.091t-2.966-.227q-1.283-.136-2.165-.281t-1.363-.236L71.99-28.58q.909.181,2.833.454A33.844,33.844,0,0,0,79.473-27.854Zm24.585,1.924h-7.91l6.681-9.546h7.963Zm3.848-10.708a12.3,12.3,0,0,1-2.993-.336q-1.336-.336-1.336-1.025a.922.922,0,0,1,.454-.717,4.252,4.252,0,0,1,1.2-.581,10.539,10.539,0,0,1,1.737-.39,14.545,14.545,0,0,1,2.111-.145,12.3,12.3,0,0,1,2.993.336q1.336.336,1.336,1.025a.922.922,0,0,1-.454.717,4.252,4.252,0,0,1-1.2.581,10.538,10.538,0,0,1-1.737.39A14.545,14.545,0,0,1,107.906-36.638Zm27.632,9.51a7.487,7.487,0,0,1-2.111,2.042,12.117,12.117,0,0,1-3.26,1.434,26.509,26.509,0,0,1-4.677.853,62.826,62.826,0,0,1-6.36.281q-3.367,0-5.665-.209t-4.169-.517l2.672-2.142q1.657.254,3.447.436t4.409.181a19.286,19.286,0,0,0,5.158-.517,4,4,0,0,0,2.271-1.334l.214-.345q-1.069.181-2.271.29t-2.539.109a30.706,30.706,0,0,1-4.329-.263,12.778,12.778,0,0,1-2.966-.735,4.5,4.5,0,0,1-1.71-1.116,2.1,2.1,0,0,1-.561-1.406,3,3,0,0,1,1.5-2.441,13.087,13.087,0,0,1,3.982-1.769,35.452,35.452,0,0,1,5.719-1.071,60.629,60.629,0,0,1,6.761-.363q2.565,0,5.077.181t4.917.563Zm-3.527-6.261q-.909-.073-2.245-.073a24.24,24.24,0,0,0-3.634.245,14.591,14.591,0,0,0-2.752.662,4.983,4.983,0,0,0-1.764,1.007A1.739,1.739,0,0,0,121-30.286a1.207,1.207,0,0,0,.16.608,1.306,1.306,0,0,0,.588.49,4.448,4.448,0,0,0,1.176.336,11.466,11.466,0,0,0,1.871.127q.748,0,2-.091a9.7,9.7,0,0,0,2.271-.417Zm16.034-1.652q.909-.091,2-.209t2.459-.218q1.363-.1,3.046-.163t3.821-.064q6.307,0,8.658,1.234t.8,3.376L165.2-25.93h-7.963l3.527-5.045a5.3,5.3,0,0,0,.508-.916.8.8,0,0,0-.027-.78,1.658,1.658,0,0,0-.989-.544,9.914,9.914,0,0,0-2.378-.209q-1.55,0-3.153.109l-5.184,7.386h-7.963Z" transform="matrix(0.588, -0.809, 0.809, 0.588, 58.068, 190.77)" fill="#fff"/>
    <g id="Group_404" data-name="Group 404" transform="matrix(0.921, 0.391, -0.391, 0.921, -1.923, -62.325)">
      <rect id="Rectangle_494" data-name="Rectangle 494" width="5" height="30" transform="translate(172.092 -31.052) rotate(-7)" fill="#fa163f"/>
      <rect id="Rectangle_493" data-name="Rectangle 493" width="5" height="40" transform="matrix(0.899, -0.438, 0.438, 0.899, 142.757, -35.08)" fill="#fa163f"/>
      <rect id="Rectangle_495" data-name="Rectangle 495" width="5" height="29.999" transform="matrix(0.469, -0.883, 0.883, 0.469, 126.032, -2.997)" fill="#fa163f"/>
    </g>
  </g>
</svg>
