<svg xmlns="http://www.w3.org/2000/svg" width="73.361" height="68.856" viewBox="0 0 73.361 68.856">
  <g id="Group_372" data-name="Group 372" transform="matrix(-0.857, -0.515, 0.515, -0.857, 54.825, 68.773)">
    <path id="Path_77" data-name="Path 77" d="M55.148,6.291C53.976,5.537,31.266,1.467,27.7,1.078,25.462.839,19.28.037,19.28.037S5.48-1.43,4.374,14.172c-.407,5.78-.883,5.82,1.493,10.928s6.146,6.351,9.22,9.807a55.421,55.421,0,0,1,6.061,9.166c3.345,2.4,5.612.695,6.5-1.554a5.954,5.954,0,0,0,.039-3.3L22.7,30.915l27.371,6.758a3.747,3.747,0,0,0,3.5-1.5c1.124-1.278,1.2-1.834.993-3.61s-2.374-3.195-2.374-3.195,7.686,2.763,8.244-2.494c.347-3.52-2.273-4.459-2.273-4.459s4.3-.777,4.272-4.069c.269-3.827-4.241-4.823-4.241-4.823L54.7,12.649s2.515-.658,2.743-2.61S55.94,6.8,55.148,6.291Z" transform="translate(0 -2.524)" fill="#fa163f"/>
    <path id="Path_78" data-name="Path 78" d="M5.082,7.025S6.577,10.892,9.8,12.2s8.187.045,8.187.045.643.627.551,1.194-1.037,1.067-2.786,1.477a15.679,15.679,0,0,1-4.212.162,10.966,10.966,0,0,1-4.72-1.907A12.382,12.382,0,0,1,3.715,8.89L0,.7,1.663,0Z" transform="matrix(-0.799, -0.602, 0.602, -0.799, 23.925, 29.383)" fill="#ca0024"/>
    <path id="Path_392" data-name="Path 392" d="M0,0,21.659.006A5,5,0,0,1,23.416.88a4.737,4.737,0,0,1,1.117,1.574H0Z" transform="translate(37.161 14.563) rotate(14)" fill="#ca0024"/>
    <path id="Path_391" data-name="Path 391" d="M0,0,17.583.138A9.391,9.391,0,0,1,19.5,1.216a3.465,3.465,0,0,1,1,1.273L0,2.453Z" transform="translate(35.214 22.436) rotate(14)" fill="#ca0024"/>
    <path id="Path_393" data-name="Path 393" d="M0,.6,15.87.066S19.813-.249,21.979.5s2.363,2.056,2.363,2.056L0,3.053Z" transform="translate(39.265 6.125) rotate(14)" fill="#ca0024"/>
    <path id="Path_394" data-name="Path 394" d="M.392,1.772S-.448.47.33.054,2.5,1.772,2.5,1.772s2.973,4.55,2.973,8.58S2.5,17.893,2.5,17.893,1.659,19.439.68,19.018s.136-1.739.136-1.739a11.778,11.778,0,0,0,2.55-6.994C3.366,6.254.392,1.772.392,1.772Z" transform="matrix(-0.225, 0.974, -0.974, -0.225, 49.152, 44.097)" fill="#fff"/>
    <path id="Path_395" data-name="Path 395" d="M.228,1.031S-.26.274.192.031s1.26,1,1.26,1a11.094,11.094,0,0,1,1.73,4.992,7.788,7.788,0,0,1-1.73,4.388s-.486.9-1.056.655.079-1.012.079-1.012A6.853,6.853,0,0,0,1.958,5.984,10.855,10.855,0,0,0,.228,1.031Z" transform="matrix(-0.225, 0.974, -0.974, -0.225, 45.781, 38.789)" fill="#fff"/>
    <path id="Path_396" data-name="Path 396" d="M.392,1.772S-.448.47.33.054,2.5,1.772,2.5,1.772s2.973,4.55,2.973,8.58S2.5,17.893,2.5,17.893,1.659,19.439.68,19.018s.136-1.739.136-1.739a11.778,11.778,0,0,0,2.55-6.994C3.366,6.254.392,1.772.392,1.772Z" transform="matrix(0.225, -0.974, 0.974, 0.225, 36.2, -8.523)" fill="#fff"/>
    <path id="Path_397" data-name="Path 397" d="M.228,1.031S-.26.274.192.031s1.26,1,1.26,1a11.094,11.094,0,0,1,1.73,4.992,7.788,7.788,0,0,1-1.73,4.388s-.486.9-1.056.655.079-1.012.079-1.012A6.853,6.853,0,0,0,1.958,5.984,10.855,10.855,0,0,0,.228,1.031Z" transform="matrix(0.225, -0.974, 0.974, 0.225, 39.572, -3.215)" fill="#fff"/>
  </g>
</svg>
