<svg xmlns="http://www.w3.org/2000/svg" width="258.245" height="342.32" viewBox="0 0 258.245 342.32">
  <g id="iceberg_1_" data-name="iceberg (1)" transform="matrix(0.996, -0.087, 0.087, 0.996, -7.771, 9.988)">
    <path id="Path_478" data-name="Path 478" d="M117.938,0c64.7,0,117.875,3.558,117.875,20.011s-50.229,27.63-114.926,27.631S0,36.35,0,19.9,53.241,0,117.938,0Z" transform="translate(5.276 286.24) rotate(5)" fill="#262626" opacity="0.31"/>
    <path id="Path_461" data-name="Path 461" d="M192.531,54.174c-5.312-10.666-14.577-18.3-25.409-20.921l-10.605-2.571a37.652,37.652,0,0,1-19.282-11.8l-5.38-6.084C121.655,1.263,106.349-2.9,92.406,2.061L86.273,4.244a38.454,38.454,0,0,0-17.66,13.115l-9.253,12.2A38.121,38.121,0,0,1,39.021,43.506l-4.2,1.134C25.944,47.038,4.933,50.507-.4,58.647l.348,21.964,103.233,16.4,95.738-32.82Z" transform="translate(22.928 36.673)" fill="#f8f8f8"/>
    <g id="Group_387" data-name="Group 387" transform="translate(193.417 84.704)">
      <path id="Path_462" data-name="Path 462" d="M5.052,16a57.649,57.649,0,0,0-3.9-6.645A5.861,5.861,0,1,1,10.569,2.37,64.069,64.069,0,0,1,15.353,10.4,5.861,5.861,0,1,1,5.052,16Z" transform="translate(0 0)" fill="#fff"/>
    </g>
    <g id="Group_388" data-name="Group 388" transform="translate(165.967 70.558)">
      <path id="Path_463" data-name="Path 463" d="M19.108,15.022C14.375,13.811,9.3,13.016,4.177,11.476A5.861,5.861,0,0,1,7.549.249C12.042,1.6,17.073,2.4,22.015,3.666a5.861,5.861,0,0,1-2.907,11.357Z" transform="translate(0 0)" fill="#fff"/>
    </g>
    <path id="Path_464" data-name="Path 464" d="M0,3.543,4.285,22.756l2.8,16.67L17.9,77.651A28.023,28.023,0,0,0,29.038,93.366l2.648,1.78a28.3,28.3,0,0,1,11.7,18.054L46.3,127.813a28.912,28.912,0,0,0,8.074,15.1l22.24,21.627c10.733,10.437,27.181,9.268,36.592-2.6a26.091,26.091,0,0,1,8.986-7.285l20.548-10.014a27.5,27.5,0,0,0,14.044-17.089l8.938-30.181a28.057,28.057,0,0,1,10.551-15.02l12.548-8.864a28.283,28.283,0,0,0,11.038-16.877l10.911-43.3a22.314,22.314,0,0,0-2.9-7.434A25.4,25.4,0,0,0,202.006,0Z" transform="translate(20.796 107.387)" fill="#dadada"/>
    <g id="Group_389" data-name="Group 389" transform="translate(158.84 201.1)">
      <path id="Path_465" data-name="Path 465" d="M4.071,21.711A5.862,5.862,0,0,1,.282,14.338C1.345,11.027,2.446,7.517,3.543,4.081A5.862,5.862,0,0,1,14.71,7.647c-1.129,3.536-2.131,6.739-3.266,10.275A5.862,5.862,0,0,1,4.071,21.711Z" transform="translate(0 0)" fill="#cdcdcd"/>
    </g>
    <g id="Group_390" data-name="Group 390" transform="translate(168.41 165.838)">
      <path id="Path_466" data-name="Path 466" d="M2.789,23.813A5.861,5.861,0,0,1,.872,15.749,52.281,52.281,0,0,1,14.339,1.136a5.862,5.862,0,0,1,6.934,9.453A40.463,40.463,0,0,0,10.855,21.9a5.862,5.862,0,0,1-8.065,1.918Z" transform="translate(0 0)" fill="#cdcdcd"/>
    </g>
    <path id="Path_467" data-name="Path 467" d="M239.446,4.534A169.352,169.352,0,0,1,211.486,7.1c-15.864.172-16.819-3.02-35.363-3.384s-19.361,5.64-41.471,6.257-20.971-3.527-44.64-4.345S70.02,8.566,48.141,8.936C30.113,9.242,14.325,2.95,9.124.636c-.865-.385-5.424-1.406-6.81.4A10.579,10.579,0,0,0,.1,9.256C.556,13.2,7.386,16.528,10.151,17.8a79.38,79.38,0,0,0,38.887,8.966c22.178-.389,20.706-4.172,44.638-3.375s21.308,4.956,42.927,4.329,22.379-6.628,41.218-6.281,21.359,3.52,36.8,3.341,24.826-2.548,24.826-2.548a8.85,8.85,0,1,0,0-17.7Z" transform="translate(0 89.157)" fill="#dbfbff"/>
    <g id="Group_403" data-name="Group 403" transform="matrix(-0.921, -0.391, 0.391, -0.921, 146.747, 55.109)">
      <path id="Path_398" data-name="Path 398" d="M4.587,21.74.1,8.605s-.228-.7,0-.845S2.757,6.8,2.757,6.8,5.728,5.791,6.325,5.47,8.707,4.052,8.707,4.052,11.5,2.659,11.795,2.543A15.045,15.045,0,0,0,14.61,1.237,12.2,12.2,0,0,1,16.692,0s1.516,3.377,2.5,6.111A20.874,20.874,0,0,1,20.549,10.3c.417,1.986.65,3.306.65,3.306s-.05.194-1.019.92a16.719,16.719,0,0,1-2.114,1.5c-2.826,1.579-4.46,2.014-8.4,3.776A27.249,27.249,0,0,1,4.587,21.74Z" transform="translate(14.204 21.535)" fill="#fa163f"/>
      <path id="Path_411" data-name="Path 411" d="M1.7,44.981l1.024-.044s-.229-8.1-.229-15.924c0-.931-1.23-28.957-1.23-28.957L0,0,1.538,26.931s.018,1.556.018,2.25C1.556,37.009,1.7,44.981,1.7,44.981Z" transform="matrix(0.951, -0.309, 0.309, 0.951, 2.607, 2.061)" fill="#262626"/>
      <rect id="Rectangle_492" data-name="Rectangle 492" width="6.815" height="0.757" transform="matrix(-0.921, 0.391, -0.391, -0.921, 6.569, 0.697)" fill="#474646"/>
    </g>
  </g>
</svg>
