<svg xmlns="http://www.w3.org/2000/svg" width="293" height="60.363" viewBox="0 0 293 60.363">
  <g id="logo" transform="translate(-297.963 -174.91)">
    <text id="Oleo_Script_Swash_Caps" data-name="Oleo Script Swash Caps" transform="translate(577.963 232.91)" fill="#fff" font-size="9" font-family="Ubuntu-Regular, Ubuntu"><tspan x="0" y="0">.de</tspan></text>
    <g id="Group_320" data-name="Group 320" transform="translate(355.234 175.132)">
      <path id="Path_75" data-name="Path 75" d="M696.8,1500.158s2.684-.347,3.655-.452c1.548-.167,5.661-.419,6.17-.747.826-.531,2.055-2.848,1.2-8.041a12.519,12.519,0,0,0-2.119-5.056,1.288,1.288,0,0,0-1.286-.521l-7.47,1.3s-2.231-9.282-8.189-5.013a12.394,12.394,0,0,1,1.905,5.193c.153,2.207-.511,4.691-.333,7.2C690.812,1500.8,696.8,1500.158,696.8,1500.158Z" transform="translate(-688.76 -1480.51)" fill="#fa163f"/>
      <path id="Path_76" data-name="Path 76" d="M712.212,1489.192a6.458,6.458,0,0,0-.846-3.056,12.442,12.442,0,0,1,2.319,4.674l-2.293.545A4.681,4.681,0,0,0,712.212,1489.192Z" transform="translate(-705.496 -1484.675)" fill="#040000"/>
    </g>
    <g id="Group_321" data-name="Group 321" transform="translate(504.794 175.132)">
      <path id="Path_77" data-name="Path 77" d="M1282.6,1498.956c-.509.327-4.622.579-6.17.748-.971.1-3.653.452-3.653.452s-5.988.636-6.468-6.133c-.177-2.508.488-4.991.335-7.2a12.425,12.425,0,0,0-1.906-5.193c2.649-1.9,4.56-1.117,5.866.335a.008.008,0,0,0,0,.005,12.443,12.443,0,0,1,2.319,4.674l7.471-1.3a1.289,1.289,0,0,1,1.285.522,12.5,12.5,0,0,1,2.119,5.056C1284.652,1496.108,1283.421,1498.427,1282.6,1498.956Z" transform="translate(-1264.733 -1480.506)" fill="#fa163f"/>
      <path id="Path_78" data-name="Path 78" d="M1288.18,1489.2a6.463,6.463,0,0,0-.847-3.056,12.439,12.439,0,0,1,2.319,4.674l-2.293.545A4.685,4.685,0,0,0,1288.18,1489.2Z" transform="translate(-1281.464 -1484.676)" fill="#040000"/>
    </g>
    <g id="Group_322" data-name="Group 322" transform="translate(297.963 174.91)">
      <g id="Group_35" data-name="Group 35" transform="translate(0 4.132)">
        <path id="Path_79" data-name="Path 79" d="M497.786,1510.13l.075,1.426a62.387,62.387,0,0,1-1.427,12.688,74.707,74.707,0,0,1-3.979,13.063,31.427,31.427,0,0,1-6.644,10.36q-4.093,4.128-8.409,4.129a8.9,8.9,0,0,1-6.757-2.553,9.79,9.79,0,0,1-2.44-7.057q0-7.131,5.781-15.5a72.168,72.168,0,0,1,12.162-13.852q0-7.207-1.652-8.784a3.4,3.4,0,0,0-2.365-.751,12.178,12.178,0,0,0-4.5,1.352,23.847,23.847,0,0,0-5.669,3.679l-1.877-2.628a27.983,27.983,0,0,1,7.921-6.269,20.2,20.2,0,0,1,9.948-2.966q7.507,0,9.31,8.709,10.96-9.61,17.643-9.61a7.149,7.149,0,0,1,5.593,2.628,10.428,10.428,0,0,1,2.29,7.095q0,4.468-3.679,17.981t-3.679,17.079q0,3.567,2.252,3.566a6.157,6.157,0,0,0,1.877-.375l1.126,2.853q-4.881,3.379-9.159,3.379t-6.044-2.027a7.826,7.826,0,0,1-1.764-5.33q0-3.3,3.529-17t3.529-17q0-4.128-3-4.129Q504.168,1504.274,497.786,1510.13Zm-21.847,34.535q3,0,5.969-7.207t4.017-18.469a49.505,49.505,0,0,0-8.3,10.736q-4.167,6.908-4.167,11.336a4.3,4.3,0,0,0,.713,2.7A2.169,2.169,0,0,0,475.939,1544.664Z" transform="translate(-468.206 -1495.565)" fill="#fff"/>
        <path id="Path_80" data-name="Path 80" d="M709.1,1578.486q0,3.154-2.027,10.849t-2.027,10.06q0,2.364.676,2.365a17.276,17.276,0,0,0,3.453-1.427l.9-.45,1.276,2.628q-.676.6-1.8,1.5a26.435,26.435,0,0,1-4.2,2.44,12.881,12.881,0,0,1-5.706,1.539,5.362,5.362,0,0,1-4.129-1.615,6.132,6.132,0,0,1-1.5-4.354q0-2.74,1.877-9.76t1.877-9.122a10.135,10.135,0,0,0-1.952-5.931l-1.2-1.717.6-.16q3.978-1.126,12.913-1.126Q709.1,1575.332,709.1,1578.486Z" transform="translate(-635.377 -1553.786)" fill="#fff"/>
        <path id="Path_81" data-name="Path 81" d="M781.325,1576.514q-3,0-4.8,4.993a31.279,31.279,0,0,0-1.8,10.7q0,9.009,5.555,9.009a9.778,9.778,0,0,0,3.829-.864,18.688,18.688,0,0,0,3.228-1.689l1.126-.9,1.727,2.327a12.189,12.189,0,0,1-2.4,2.177,32.91,32.91,0,0,1-3.378,2.252,19.884,19.884,0,0,1-4.054,1.651,16.784,16.784,0,0,1-4.88.751q-5.856,0-8.784-3.829t-2.928-10.285q0-8.934,4.918-14.49a16.124,16.124,0,0,1,12.65-5.556,12.76,12.76,0,0,1,8,2.29,6.888,6.888,0,0,1,2.965,5.63,8.432,8.432,0,0,1-2.1,5.744,14.011,14.011,0,0,1-4.354-.826,10.1,10.1,0,0,1-3.754-2.027l1.126-6.607A3.36,3.36,0,0,0,781.325,1576.514Z" transform="translate(-687.012 -1552.715)" fill="#fff"/>
        <path id="Path_82" data-name="Path 82" d="M870.536,1593.031q0-9.384,5.668-14.827a18.1,18.1,0,0,1,12.875-5.443,11.667,11.667,0,0,1,7.282,2.177,6.952,6.952,0,0,1,2.853,5.818,9.979,9.979,0,0,1-1.839,6.119,12.838,12.838,0,0,1-4.467,3.829,34.028,34.028,0,0,1-9.76,3.3l-1.8.225q.525,7.058,5.781,7.057a9.453,9.453,0,0,0,3.829-.9,14.639,14.639,0,0,0,3.153-1.8l1.126-.9,1.8,2.4a12.188,12.188,0,0,1-2.4,2.177,32.929,32.929,0,0,1-3.378,2.252,19.418,19.418,0,0,1-9.535,2.4,10,10,0,0,1-8.183-3.679Q870.535,1599.563,870.536,1593.031Zm16.817-5.706a9.614,9.614,0,0,0,2.252-6.607q0-4.054-2.4-4.054-2.854,0-4.392,4.842a29.948,29.948,0,0,0-1.539,9.046A10.17,10.17,0,0,0,887.353,1587.325Z" transform="translate(-766.064 -1552.715)" fill="#fff"/>
        <path id="Path_83" data-name="Path 83" d="M1091.013,1599.519l1.605-19.854a9.315,9.315,0,0,0-2.7-6.035s.838-.31,1.164-.385.7-.162,1.126-.263.913-.2,1.464-.3,1.126-.2,1.727-.3a12.485,12.485,0,0,1,3.162.034,4.411,4.411,0,0,1,3.153,1.5,7.143,7.143,0,0,1,1.314,4.767,60.659,60.659,0,0,1-1.014,9.31A60.174,60.174,0,0,0,1101,1597q0,2.967,1.426,2.966,2.326,0,5.105-2.928.074-1.2.976-7.658a76.564,76.564,0,0,0,.9-9.384,24.349,24.349,0,0,0-.45-5.031,29.821,29.821,0,0,1,10.36-2.177q.975.676.976,4.392a57.619,57.619,0,0,1-1.276,10.286,56.6,56.6,0,0,0-1.276,9.534q0,2.967,1.2,2.966,2.852,0,6.231-4.241t3.6-7.095l-5.105-5.706a16.833,16.833,0,0,1,1.577-5.856,12.875,12.875,0,0,1,2.4-3.679l1.051-.976a6.449,6.449,0,0,1,4.88,1.727,5.68,5.68,0,0,1,1.651,4.054,30.973,30.973,0,0,1-2.928,12.538,33.9,33.9,0,0,1-7.883,11.224q-4.955,4.617-10.06,4.617a6.536,6.536,0,0,1-4.317-1.464,7.083,7.083,0,0,1-2.365-3.791q-5.256,5.256-10.21,5.255a5.749,5.749,0,0,1-4.88-2.065A7.983,7.983,0,0,1,1091.013,1599.519Z" transform="translate(-928.478 -1552.371)" fill="#fff"/>
        <path id="Path_84" data-name="Path 84" d="M1285.019,1578.486q0,3.154-2.027,10.849t-2.027,10.06q0,2.364.676,2.365a17.273,17.273,0,0,0,3.453-1.427l.9-.45,1.276,2.628q-.675.6-1.8,1.5a26.438,26.438,0,0,1-4.2,2.44,12.883,12.883,0,0,1-5.706,1.539,5.362,5.362,0,0,1-4.129-1.615,6.131,6.131,0,0,1-1.5-4.354q0-2.74,1.877-9.76t1.877-9.122a10.135,10.135,0,0,0-1.952-5.931l-1.124-1.7.523-.173q3.978-1.126,12.913-1.126Q1285.018,1575.332,1285.019,1578.486Z" transform="translate(-1061.748 -1553.786)" fill="#fff"/>
        <path id="Path_85" data-name="Path 85" d="M1358.243,1576.514q-3,0-4.8,4.993a31.293,31.293,0,0,0-1.8,10.7q0,9.009,5.555,9.009a9.781,9.781,0,0,0,3.829-.864,18.692,18.692,0,0,0,3.228-1.689l1.126-.9,1.727,2.327a12.185,12.185,0,0,1-2.4,2.177,32.91,32.91,0,0,1-3.378,2.252,19.893,19.893,0,0,1-4.054,1.651,16.78,16.78,0,0,1-4.879.751q-5.856,0-8.784-3.829t-2.928-10.285q0-8.934,4.917-14.49a16.124,16.124,0,0,1,12.65-5.556,12.759,12.759,0,0,1,8,2.29,6.887,6.887,0,0,1,2.966,5.63,8.432,8.432,0,0,1-2.1,5.744,14.01,14.01,0,0,1-4.354-.826,10.1,10.1,0,0,1-3.754-2.027l1.126-6.607A3.359,3.359,0,0,0,1358.243,1576.514Z" transform="translate(-1114.124 -1552.715)" fill="#fff"/>
        <path id="Path_86" data-name="Path 86" d="M1449.454,1593.031q0-9.384,5.668-14.827A18.1,18.1,0,0,1,1468,1572.76a11.667,11.667,0,0,1,7.282,2.177,6.952,6.952,0,0,1,2.853,5.818,9.979,9.979,0,0,1-1.84,6.119,12.84,12.84,0,0,1-4.467,3.829,34.031,34.031,0,0,1-9.76,3.3l-1.8.225q.524,7.058,5.781,7.057a9.455,9.455,0,0,0,3.829-.9,14.637,14.637,0,0,0,3.153-1.8l1.126-.9,1.8,2.4a12.185,12.185,0,0,1-2.4,2.177,32.9,32.9,0,0,1-3.379,2.252,19.416,19.416,0,0,1-9.535,2.4,10,10,0,0,1-8.183-3.679Q1449.454,1599.563,1449.454,1593.031Zm16.817-5.706a9.614,9.614,0,0,0,2.253-6.607q0-4.054-2.4-4.054-2.854,0-4.392,4.842a29.948,29.948,0,0,0-1.539,9.046A10.169,10.169,0,0,0,1466.271,1587.325Z" transform="translate(-1194.656 -1552.715)" fill="#fff"/>
      </g>
      <path id="Path_87" data-name="Path 87" d="M1007.849,1481.418a7.829,7.829,0,0,0-5.33-1.764c-2.2,0-16.567,5.484-30.343,6.9-9.223.951-11.538-1.365-11.538-1.365a13.2,13.2,0,0,0-1.331,6.428,6.561,6.561,0,0,0,1.849,4.814c1.461,1.44,3.949,1.97,7.354,1.511,2.072-.279,10.653-2.605,10.733-2.074-.154,2.373-1.771,8.989-4.033,17.773q-3.529,13.7-3.529,17a7.826,7.826,0,0,0,1.764,5.33q1.763,2.027,6.044,2.027t9.16-3.378l-1.126-2.853a6.165,6.165,0,0,1-1.877.375q-2.252,0-2.252-3.566c0-2.377,1.011-7.993,3.159-17.08,2.073-8.77,3.7-14.553,4.455-17.8,5.451-1.561,7.109-2.192,8.987-2.453,1.691-.235,3.292-.385,4.781.563a17.835,17.835,0,0,1,2.307,2.536,9.34,9.34,0,0,0,2.793-6.892Q1009.876,1483.184,1007.849,1481.418Z" transform="translate(-831.784 -1479.654)" fill="#fff"/>
    </g>
  </g>
</svg>
