<svg xmlns="http://www.w3.org/2000/svg" width="74.162" height="37.656" viewBox="0 0 74.162 37.656">
  <g id="Logo" transform="translate(-37.884 -55)">
    <g id="Group_134" data-name="Group 134" transform="translate(37.884 55)">
      <path id="Path_75" data-name="Path 75" d="M704.154,1518.135s5.14-.664,7-.865c2.965-.321,10.841-.8,11.815-1.43,1.582-1.016,3.935-5.454,2.3-15.4a23.971,23.971,0,0,0-4.059-9.682,2.465,2.465,0,0,0-2.462-1l-14.3,2.5s-4.273-17.776-15.681-9.6c0,0,3.3,4.9,3.649,9.945.293,4.227-.978,8.983-.638,13.786C692.69,1519.358,704.154,1518.135,704.154,1518.135Z" transform="translate(-688.76 -1480.51)" fill="#fa163f"/>
      <path id="Path_76" data-name="Path 76" d="M712.286,1489.534a11.692,11.692,0,0,0-.255-3.3,27.533,27.533,0,0,1,2.013,5.279l-2.326.447A8.744,8.744,0,0,0,712.286,1489.534Z" transform="translate(-698.333 -1479.749)" fill="#7b0016"/>
    </g>
    <g id="Group_135" data-name="Group 135" transform="translate(74.985 55)">
      <path id="Path_75-2" data-name="Path 75" d="M704.154,1518.135s5.14-.664,7-.865c2.965-.321,10.841-.8,11.815-1.43,1.582-1.016,3.935-5.454,2.3-15.4a23.971,23.971,0,0,0-4.059-9.682,2.465,2.465,0,0,0-2.462-1l-14.3,2.5s-4.273-17.776-15.681-9.6c0,0,3.3,4.9,3.649,9.945.293,4.227-.978,8.983-.638,13.786C692.69,1519.358,704.154,1518.135,704.154,1518.135Z" transform="translate(-688.76 -1480.51)" fill="#fa163f"/>
      <path id="Path_76-2" data-name="Path 76" d="M712.286,1489.534a11.692,11.692,0,0,0-.255-3.3,27.533,27.533,0,0,1,2.013,5.279l-2.326.447A8.744,8.744,0,0,0,712.286,1489.534Z" transform="translate(-698.333 -1479.749)" fill="#7b0016"/>
    </g>
  </g>
</svg>
