<?xml version="1.0" encoding="UTF-8" standalone="no"?>
<svg
   xmlns:dc="http://purl.org/dc/elements/1.1/"
   xmlns:cc="http://creativecommons.org/ns#"
   xmlns:rdf="http://www.w3.org/1999/02/22-rdf-syntax-ns#"
   xmlns:svg="http://www.w3.org/2000/svg"
   xmlns="http://www.w3.org/2000/svg"
   id="svg3"
   version="1.1"
   viewBox="0 0 48.332 43"
   height="43"
   width="48.332">
  <metadata
     id="metadata9">
    <rdf:RDF>
      <cc:Work
         rdf:about="">
        <dc:format>image/svg+xml</dc:format>
        <dc:type
           rdf:resource="http://purl.org/dc/dcmitype/StillImage" />
      </cc:Work>
    </rdf:RDF>
  </metadata>
  <defs
     id="defs7" />
  <path
     transform="translate(0)"
     d="M24.166,43a2.834,2.834,0,0,1-1.868-.7c-1.952-1.707-3.835-3.312-5.5-4.727l-.008-.007c-4.869-4.149-9.074-7.733-12-11.263C1.523,22.354,0,18.613,0,14.525A15.106,15.106,0,0,1,3.834,4.208,13,13,0,0,1,13.5,0,12.157,12.157,0,0,1,21.1,2.621a15.537,15.537,0,0,1,3.07,3.206,15.538,15.538,0,0,1,3.071-3.206A12.157,12.157,0,0,1,34.83,0,13,13,0,0,1,44.5,4.208a15.106,15.106,0,0,1,3.834,10.317c0,4.088-1.523,7.829-4.793,11.775-2.926,3.53-7.13,7.113-12,11.263-1.664,1.417-3.549,3.024-5.506,4.736a2.836,2.836,0,0,1-1.868.7ZM13.5,2.831a10.2,10.2,0,0,0-7.587,3.3,12.288,12.288,0,0,0-3.085,8.4c0,3.438,1.278,6.512,4.142,9.969,2.769,3.341,6.887,6.851,11.656,10.915l.009.007c1.667,1.421,3.557,3.031,5.524,4.751,1.979-1.723,3.871-3.336,5.542-4.759,4.768-4.064,8.886-7.573,11.655-10.914,2.864-3.457,4.142-6.531,4.142-9.969a12.288,12.288,0,0,0-3.085-8.4,10.2,10.2,0,0,0-7.586-3.3,9.39,9.39,0,0,0-5.862,2.03A13.738,13.738,0,0,0,25.7,8.641a1.787,1.787,0,0,1-3.07,0,13.726,13.726,0,0,0-3.267-3.78A9.39,9.39,0,0,0,13.5,2.831Zm0,0"
     id="heart" />
</svg>
