<?xml version="1.0" encoding="UTF-8" standalone="no"?>
<svg
   xmlns:dc="http://purl.org/dc/elements/1.1/"
   xmlns:cc="http://creativecommons.org/ns#"
   xmlns:rdf="http://www.w3.org/1999/02/22-rdf-syntax-ns#"
   xmlns:svg="http://www.w3.org/2000/svg"
   xmlns="http://www.w3.org/2000/svg"
   id="svg3"
   version="1.1"
   viewBox="0 0 32 32"
   height="32"
   width="32">
  <metadata
     id="metadata9">
    <rdf:RDF>
      <cc:Work
         rdf:about="">
        <dc:format>image/svg+xml</dc:format>
        <dc:type
           rdf:resource="http://purl.org/dc/dcmitype/StillImage" />
      </cc:Work>
    </rdf:RDF>
  </metadata>
  <defs
     id="defs7" />
  <path
     d="M32,24.5A7.5,7.5,0,1,0,24.5,32,7.536,7.536,0,0,0,32,24.5Zm-17,0A7.5,7.5,0,1,0,7.5,32,7.536,7.536,0,0,0,15,24.5Zm14,0A4.5,4.5,0,1,1,24.5,20,4.521,4.521,0,0,1,29,24.5Zm-17,0A4.5,4.5,0,1,1,7.5,20,4.521,4.521,0,0,1,12,24.5Zm20-17A7.5,7.5,0,1,0,24.5,15,7.536,7.536,0,0,0,32,7.5Zm-17,0A7.5,7.5,0,1,0,7.5,15,7.536,7.536,0,0,0,15,7.5Zm14,0A4.5,4.5,0,1,1,24.5,3,4.521,4.521,0,0,1,29,7.5Zm-17,0A4.5,4.5,0,1,1,7.5,3,4.521,4.521,0,0,1,12,7.5Z"
     id="section" />
</svg>
