<svg xmlns="http://www.w3.org/2000/svg" width="31.194" height="31.19" viewBox="0 0 31.194 31.19">
  <g id="tweter" transform="translate(-0.056 -0.75)">
    <path id="Icon_awesome-whatsapp" data-name="Icon awesome-whatsapp" d="M26.007,6.695A15.163,15.163,0,0,0,2.151,24.987L0,32.839l8.036-2.11a15.112,15.112,0,0,0,7.244,1.844h.007a15.3,15.3,0,0,0,15.3-15.158,15.217,15.217,0,0,0-4.581-10.72ZM15.287,30.019a12.576,12.576,0,0,1-6.418-1.755l-.457-.273L3.646,29.24l1.27-4.65-.3-.478a12.623,12.623,0,1,1,23.412-6.7,12.739,12.739,0,0,1-12.741,12.6Zm6.91-9.436c-.376-.191-2.24-1.106-2.588-1.229s-.6-.191-.853.191-.976,1.229-1.2,1.488-.444.287-.819.1a10.31,10.31,0,0,1-5.155-4.506c-.389-.669.389-.621,1.113-2.069a.7.7,0,0,0-.034-.662c-.1-.191-.853-2.055-1.168-2.813-.307-.737-.621-.635-.853-.649s-.471-.014-.724-.014a1.4,1.4,0,0,0-1.011.471,4.256,4.256,0,0,0-1.325,3.161,7.42,7.42,0,0,0,1.543,3.919c.191.253,2.67,4.076,6.473,5.722,2.4,1.038,3.346,1.127,4.547.949a3.879,3.879,0,0,0,2.554-1.8,3.168,3.168,0,0,0,.218-1.8C22.825,20.863,22.573,20.767,22.2,20.583Z" transform="translate(0.411 -1.25)" fill="#444a6c" stroke="#fcfcfc" stroke-width="0.5"/>
  </g>
</svg>
