<svg xmlns="http://www.w3.org/2000/svg" xmlns:xlink="http://www.w3.org/1999/xlink" width="299.891" height="125.392" viewBox="0 0 299.891 125.392"><defs><linearGradient id="a" x1="0.5" x2="0.5" y2="1" gradientUnits="objectBoundingBox"><stop offset="0" stop-color="#ffb845"/><stop offset="1" stop-color="#fed557"/></linearGradient></defs><g transform="translate(0 0.001)"><path d="M24431.867,18153.387a37.242,37.242,0,0,1-12.168-2.062,42.37,42.37,0,0,1-9.238-4.533,41.513,41.513,0,0,1-7.918-6.6l10.641-8.441a40.452,40.452,0,0,0,5.973,3.367,33.541,33.541,0,0,0,13.609,3.365,18.8,18.8,0,0,0,13.727-5.6c3.023-3.02,5.1-7.9,6.156-14.516a89.228,89.228,0,0,0,.605-19.027,174.524,174.524,0,0,0-3.172-23.586v-.02a26.082,26.082,0,0,1,1.852-8.312,21.955,21.955,0,0,1,4.207-6.781,20.022,20.022,0,0,1,8.043-5.3,26.484,26.484,0,0,1,8.668-1.867c2.9,0,4.4.961,5.148,1.781a3.6,3.6,0,0,1,.938,1.771,11.724,11.724,0,0,0-3.141,2.555,18.566,18.566,0,0,0-4.344,9.324,88.365,88.365,0,0,0-.258,24.488c1.148,9.41,3.43,16.748,6.422,20.656,1.879,2.469,5.039,4.33,9.406,5.523a50.411,50.411,0,0,0,13.113,1.518,77.549,77.549,0,0,0,12.16-.98,13.126,13.126,0,0,0,7.125-4.811,10.016,10.016,0,0,0,1.641-3.225,32.353,32.353,0,0,0-3.621-3.736,42.052,42.052,0,0,0-10.336-6.818c-8.449-3.9-20.457-5.713-21.789-5.906h-.02v-.01a55.117,55.117,0,0,1-1.219-10.607,41.623,41.623,0,0,1,.852-9.539,22.811,22.811,0,0,1,3.938-9.012,32.6,32.6,0,0,1,11.078-9.621,30.427,30.427,0,0,1,13.977-3.215,44.334,44.334,0,0,1,7.723.736c7.1,1.273,13.848,5.8,18.5,12.412a35.491,35.491,0,0,1,5.336,11.664,40.316,40.316,0,0,1,.941,14.424,59.257,59.257,0,0,1-2.617,12.549,30.3,30.3,0,0,1-3.566,7.377c-2.309,3.361-4.4,4.314-4.484,4.346a10.526,10.526,0,0,0,4.3,2.992,11.2,11.2,0,0,0,10.371-1.576c.105-.092.238-.186.363-.277a8.46,8.46,0,0,0,3.586-5.158c1.164-4.516,1.707-7.395,2.277-17.779.359-6.447.438-11.225.508-15.047v-.043c.035-2.293.066-4.283.152-6.08a53.035,53.035,0,0,1,1.148-8.854c.824-3.631,1.977-6.07,3.43-7.285.176-.156.359-.3.52-.455a1.423,1.423,0,0,0,.215-.164c3.008-2.549,4.66-3.943,13.355-3.943,1.055,0,2.2.01,3.488.049a23.746,23.746,0,0,1,15.969,7.2,34.755,34.755,0,0,1,8.836,15.035,71.022,71.022,0,0,1,1.461,20.092c-.434,6.764-1.754,12.691-3.629,16.248a32.86,32.86,0,0,1-6.508,8.973,18.065,18.065,0,0,1-5.082,3.355,16.423,16.423,0,0,1-6.57,1.324,20.656,20.656,0,0,1-4.477-.5,20.383,20.383,0,0,1-7.738-3.436,18.917,18.917,0,0,1-4.582-4.8,19.2,19.2,0,0,1-2.766-6.137h-.008a44.385,44.385,0,0,1-4.355,6.123,34.762,34.762,0,0,1-4.852,4.758,18.7,18.7,0,0,1-6.078,3.322,16.423,16.423,0,0,1-4.66.633,30.229,30.229,0,0,1-10.352-2.16,35.983,35.983,0,0,1-4.672-2.146.044.044,0,0,1-.023-.01c-.32.277-3.3,2.678-9.27,3.684a121.255,121.255,0,0,1-18.6,1.18c-4.379,0-8.879-.15-12.645-.42a36.788,36.788,0,0,1-9.336-1.8,24.777,24.777,0,0,1-5.93-2.937,14.1,14.1,0,0,1-4.051-3.959,39.017,39.017,0,0,1-2.914,13.756,34.832,34.832,0,0,1-7.34,11.295,36.783,36.783,0,0,1-14.547,9,39.6,39.6,0,0,1-12.871,2.215Zm141.844-80.174c-6.129.387-7.18,7.314-7.4,14.039-.168,5.963-.516,17.09,4.207,21.76a8.568,8.568,0,0,0,6.063,2.689,7.522,7.522,0,0,0,5.293-2.1c.035-.037.082-.078.121-.121a1.3,1.3,0,0,1,.113-.117c1.957-2.051,4.91-5.152,4.715-16.656a42.635,42.635,0,0,0-1.934-12.861,14.723,14.723,0,0,0-1.789-3.855,13.837,13.837,0,0,0-8.441-2.811C24574.359,18073.18,24574.043,18073.191,24573.711,18073.213Zm-65.832-11.006c-1.391,3.377-1.848,8.291-2.086,12.193-.379,6.324-.379,10.357,0,13.084a19.2,19.2,0,0,0,1.609,5.662l16.5,1.541a168.81,168.81,0,0,0-.91-19.205v-.023c-.512-4.6-1.043-9.367-2.262-12.773-1.324-3.732-3.3-5.473-6.258-5.473h-.078C24511.371,18057.244,24509.25,18058.877,24507.879,18062.207Zm-128.508,62.584a30.732,30.732,0,0,1-7-2.492,25.557,25.557,0,0,1-4.687-3.043,17.6,17.6,0,0,1-3.449-3.662v-.012a20.353,20.353,0,0,1-3.48,3.77,25.215,25.215,0,0,1-10.832,5.439,32.287,32.287,0,0,1-6.98.662,57.049,57.049,0,0,1-10.836-1.092,40.32,40.32,0,0,1-9.227-2.873,26.281,26.281,0,0,1-13.59-14.293c-2.266-5.6-2.828-11.742-3.207-17.543a41.323,41.323,0,0,1,.348-8.725,33.476,33.476,0,0,1,2.473-8.631,31.261,31.261,0,0,1,13.363-14.539,35.443,35.443,0,0,1,9.855-3.514,54.419,54.419,0,0,1,11.074-1.205c.813,0,1.582.039,2.3.07a38.061,38.061,0,0,1,9.93,1.9,24.537,24.537,0,0,1,3.672,1.537c.012.012.012.012.012.023.031-.023,2-1.57,7.363-2.26a108.566,108.566,0,0,1,11.938-.551c1.352,0,2.293.01,2.3.02v2.27l-8.41,2.316.371,50.025v.01a13.26,13.26,0,0,0,.859,3.654,11.666,11.666,0,0,0,5.2,6.049c3.164,1.748,11.7,3.074,19.832,3.074a52.758,52.758,0,0,0,8.535-.6,14.4,14.4,0,0,0,5.852-1.977c3-2.189,4.523-5.957,5.254-8.736a28.115,28.115,0,0,0,.887-5.568v-.01a61.161,61.161,0,0,0-17.6-9.236c-8.828-2.717-19.258-2.867-21.254-2.867h-.336a22.626,22.626,0,0,1-1.289-3.295,27.029,27.029,0,0,1-1.238-8.324,23.38,23.38,0,0,1,2.813-10.963,31.411,31.411,0,0,1,10.859-11.236,29.827,29.827,0,0,1,8.41-3.721,36.075,36.075,0,0,1,9.48-1.23,38.394,38.394,0,0,1,14.715,2.912,34.011,34.011,0,0,1,6.6,3.65,29.85,29.85,0,0,1,5.57,5.084,23.877,23.877,0,0,1,4.133,7.541,43.936,43.936,0,0,1,2.012,9.145,71.476,71.476,0,0,1-.309,18.023,26.871,26.871,0,0,1-6.793,14.656,31.877,31.877,0,0,1-11.367,7.66,47.372,47.372,0,0,1-15.426,3.414c-.047.01-6.176.609-13.418.609A72.173,72.173,0,0,1,24379.371,18124.791Zm-35.348-68.75c-3.445,0-8.133,2.248-10.828,7.273-2.98,5.533-4.43,14.023-4.43,25.924,0,9.936,1.344,18.625,3.68,23.832,2.676,5.953,6.891,9.359,11.578,9.359,3.586,0,10.055-1.2,13.219-4.537,1.105-1.939,2.047-18.975,2.047-28.654,0-1.977.035-4.051.066-5.709.129-6.479.25-12.6-1.156-17.184-1.141-3.684-3.836-6.25-5.793-8.119-.172-.16-.32-.3-.469-.459-1.59-1.531-4-1.748-6.152-1.748-.258,0-.512.012-.754.012h-.254C24344.508,18056.041,24344.262,18056.041,24344.023,18056.041Zm59.512,6.166c-1.1,2.666-1.723,6.318-2.082,12.193-.059.826-.1,1.537-.152,2.115l-.008.217v.033a20.129,20.129,0,0,0,.16,5.768,19.273,19.273,0,0,0,1.605,5.656l16.5,1.541a106.312,106.312,0,0,0-.906-14.248l-.012-.043c-.516-4.607-1.051-9.357-2.254-12.754-1.328-3.732-3.324-5.473-6.27-5.473h-.074C24407.027,18057.244,24404.9,18058.877,24403.535,18062.207Zm-6.844-24.547a9.6,9.6,0,1,1,9.6,9.67A9.631,9.631,0,0,1,24396.691,18037.66Zm-49.219,0a9.6,9.6,0,1,1,9.605,9.67A9.635,9.635,0,0,1,24347.473,18037.66Zm-24.605,0a9.6,9.6,0,1,1,9.586,9.67A9.631,9.631,0,0,1,24322.867,18037.66Z" transform="translate(-24305.998 -18027.996)" fill="url(#a)"/></g></svg>